<svg xmlns="http://www.w3.org/2000/svg" viewBox="0 0 400 300"><title>弹力带拉开 · Band Pull Apart</title><defs><radialGradient id="a3-sph" cx=".5" cy=".5" r=".55" fx=".36" fy=".3"><stop offset="0" stop-color="#e9e3d6"/><stop offset=".55" stop-color="#c9c3b6"/><stop offset="1" stop-color="#a39d90"/></radialGradient><path id="a3s0" d="M-9.5 0C-9.5 6.3 -9.7 15.4 -7.4 19C-5.1 22.6 -0.2 21.6 4.2 21.5C8.6 21.4 14.1 18.7 19 18.3C24 18 28.5 18.3 33.8 19.6C39.1 20.9 46.2 24.4 50.8 25.9C55.3 27.5 58.2 29.4 61.3 29.1C64.5 28.8 67.7 26.8 69.8 24C71.9 21.3 73 16 74 12.6C75.1 9.3 75.8 6.5 76.1 3.8C76.5 1.1 76.5 -1.1 76.1 -3.8C75.8 -6.5 75.1 -9.3 74 -12.6C73 -16 71.9 -21.3 69.8 -24C67.7 -26.8 64.5 -28.8 61.3 -29.1C58.2 -29.4 55.3 -27.5 50.8 -25.9C46.2 -24.4 39.1 -20.9 33.8 -19.6C28.5 -18.3 24 -18 19 -18.3C14.1 -18.7 8.6 -21.4 4.2 -21.5C-0.2 -21.6 -5.1 -22.6 -7.4 -19C-9.7 -15.4 -9.5 -6.3 -9.5 0Z"/><path id="a3s5" d="M0 8.6L31.6 6.6A6.6 6.6 0 0 0 31.6 -6.6L0 -8.6A8.6 8.6 0 0 0 0 8.6Z"/><path id="a3s7" d="M0 6.6L28.8 4.9A4.9 4.9 0 0 0 28.8 -4.9L0 -6.6A6.6 6.6 0 0 0 0 6.6Z"/><path id="a3s8" d="M0 11.8L60.8 8.3A8.3 8.3 0 0 0 60.8 -8.3L0 -11.8A11.8 11.8 0 0 0 0 11.8Z"/><path id="a3s9" d="M0 8.3L58.7 5.5A5.5 5.5 0 0 0 58.7 -5.5L0 -8.3A8.3 8.3 0 0 0 0 8.3Z"/><path id="a3s10" d="M0 4.9L13.3 3.6A3.6 3.6 0 0 0 13.3 -3.6L0 -4.9A4.9 4.9 0 0 0 0 4.9Z"/><path id="a3s11" d="M0 9.2L27.7 7A7 7 0 0 0 27.7 -7L0 -9.2A9.2 9.2 0 0 0 0 9.2Z"/><path id="a3s13" d="M0 7L25.1 5.2A5.2 5.2 0 0 0 25.1 -5.2L0 -7A7 7 0 0 0 0 7Z"/><path id="a3s14" d="M0 12.6L61.8 8.8A8.8 8.8 0 0 0 61.8 -8.8L0 -12.6A12.6 12.6 0 0 0 0 12.6Z"/><path id="a3s15" d="M0 8.8L59.7 5.8A5.8 5.8 0 0 0 59.7 -5.8L0 -8.8A8.8 8.8 0 0 0 0 8.8Z"/><path id="a3s16" d="M0 5.2L13.3 3.8A3.8 3.8 0 0 0 13.3 -3.8L0 -5.2A5.2 5.2 0 0 0 0 5.2Z"/><path id="a3s17" d="M0 6.8L12.7 6.8A6.8 6.8 0 0 0 12.7 -6.8L0 -6.8A6.8 6.8 0 0 0 0 6.8Z"/><radialGradient id="a3-fade" gradientUnits="userSpaceOnUse" cx="200" cy="264" r="190" gradientTransform="translate(200 264) scale(1 .32) translate(-200 -264)"><stop offset="0" stop-color="#fff"/><stop offset=".55" stop-color="#fff" stop-opacity=".75"/><stop offset="1" stop-color="#fff" stop-opacity="0"/></radialGradient><mask id="a3-gm" maskUnits="userSpaceOnUse" x="0" y="0" width="400" height="300"><rect width="400" height="300" fill="url(#a3-fade)"/></mask><radialGradient id="a3-shd"><stop offset="0" stop-color="#a39d90" stop-opacity=".5"/><stop offset=".55" stop-color="#a39d90" stop-opacity=".22"/><stop offset="1" stop-color="#a39d90" stop-opacity="0"/></radialGradient></defs><g mask="url(#a3-gm)"><path d="M92.1 213.2L411.3 272.6L307.9 314.8L-11.3 255.4Z" fill="#efeadf" fill-opacity=".7"/><path d="M92.1 213.2L-11.3 255.4M114.9 217.5L11.5 259.7M137.7 221.7L34.3 263.9M160.5 225.9L57.1 268.2M183.3 230.2L79.9 272.4M206.1 234.4L102.7 276.6M228.9 238.6L125.5 280.9M251.7 242.9L148.3 285.1M274.5 247.1L171.1 289.4M297.3 251.4L193.9 293.6M320.1 255.6L216.7 297.8M342.9 259.8L239.5 302.1M365.7 264.1L262.3 306.3M388.5 268.3L285.1 310.5M411.3 272.6L307.9 314.8M92.1 213.2L411.3 272.6M74.9 220.3L394 279.6M57.6 227.3L376.8 286.6M40.4 234.3L359.6 293.7M23.2 241.4L342.4 300.7M6 248.4L325.1 307.7M-11.3 255.4L307.9 314.8" fill="none" stroke="#ddd5c5" stroke-width="1"/></g><g transform="rotate(10.5)"><ellipse fill="url(#a3-shd)" cx="250.5" cy="223" rx="40.8" ry="27.7"/></g><g opacity=".82"><g transform="translate(186.1 255.6) rotate(157.8)"><use href="#a3s10" fill="#a39d90"/><use href="#a3s10" fill="#c9c3b6" transform="matrix(0.98 0 0 0.84 0.2 0.7)"/><use href="#a3s10" fill="#e9e3d6" transform="matrix(0.9 0 0 0.38 0.8 1.9)"/></g><g transform="translate(186.3 194.8) rotate(92.6)"><use href="#a3s9" fill="#a39d90"/><use href="#a3s9" fill="#c9c3b6" transform="matrix(0.98 0 0 0.84 -0.4 0.5)"/><use href="#a3s9" fill="#e9e3d6" transform="matrix(0.9 0 0 0.38 0.3 1.5)"/></g><g transform="translate(189.1 134) rotate(92.6)"><use href="#a3s8" fill="#a39d90"/><use href="#a3s8" fill="#c9c3b6" transform="matrix(0.98 0 0 0.84 -0.8 0.8)"/><use href="#a3s8" fill="#e9e3d6" transform="matrix(0.9 0 0 0.38 -0.8 2.2)"/></g><g transform="translate(186.3 194.8)"><circle r="7.9" fill="url(#a3-sph)"/></g></g><g transform="translate(218.8 261.6) rotate(157.8)"><use href="#a3s16" fill="#a39d90"/><use href="#a3s16" fill="#c9c3b6" transform="matrix(0.98 0 0 0.84 0.2 0.7)"/><use href="#a3s16" fill="#e9e3d6" transform="matrix(0.9 0 0 0.38 0.8 2)"/></g><g transform="translate(213.7 199.8) rotate(87.4)"><use href="#a3s15" fill="#a39d90"/><use href="#a3s15" fill="#c9c3b6" transform="matrix(0.98 0 0 0.84 -0.5 0.5)"/><use href="#a3s15" fill="#e9e3d6" transform="matrix(0.9 0 0 0.38 0.1 1.3)"/></g><g transform="translate(210.9 138.1) rotate(87.4)"><use href="#a3s14" fill="#a39d90"/><use href="#a3s14" fill="#c9c3b6" transform="matrix(0.98 0 0 0.84 -0.9 0.7)"/><use href="#a3s14" fill="#e9e3d6" transform="matrix(0.9 0 0 0.38 -1.2 1.9)"/></g><g transform="translate(213.7 199.8)"><circle r="8.4" fill="url(#a3-sph)"/></g><g transform="translate(200 136.1) rotate(-90) scale(1 0.9)"><use href="#a3s0" fill="#a39d90"/><use href="#a3s0" fill="#c9c3b6" transform="matrix(0.94 0 0 0.86 4.2 -1.2)"/><use href="#a3s0" fill="#e9e3d6" transform="matrix(0.72 0 0 0.42 15.3 -3.3)"/><path id="a3m1" d="M76.1 3.2C76 5.2 74.5 11.4 73 15.2C71.4 19 68.2 25.1 66.6 25.9C65 26.8 62.9 22.7 63.4 20.2C64 17.8 68 14.2 69.8 11.4C71.5 8.5 73 4.5 74 3.2C75.1 1.8 76.3 1.2 76.1 3.2Z" fill="#f0a58a" stroke="#d9481f" stroke-opacity=".5" stroke-width=".9" stroke-linejoin="round"/><use href="#a3m1" fill="#fffdf8" fill-opacity=".3" stroke="none" transform="matrix(0.5 0 0 0.5 37.1 5.6)"/><path id="a3m2" d="M76.1 -3.2C76 -5.2 74.5 -11.4 73 -15.2C71.4 -19 68.2 -25.1 66.6 -25.9C65 -26.8 62.9 -22.7 63.4 -20.2C64 -17.8 68 -14.2 69.8 -11.4C71.5 -8.5 73 -4.5 74 -3.2C75.1 -1.8 76.3 -1.2 76.1 -3.2Z" fill="#f0a58a" stroke="#d9481f" stroke-opacity=".5" stroke-width=".9" stroke-linejoin="round"/><use href="#a3m2" fill="#fffdf8" fill-opacity=".3" stroke="none" transform="matrix(0.5 0 0 0.5 37.1 -7.5)"/><path id="a3m3" d="M68.7 2.5C70 5.3 68.4 16 66.6 19C64.9 21.9 60.1 21.7 58.2 20.2C56.2 18.8 54.8 13.1 55 10.1C55.2 7.2 56.9 3.8 59.2 2.5C61.5 1.3 67.5 -0.2 68.7 2.5Z" fill="#d9481f" stroke="#4a4640" stroke-opacity=".38" stroke-width=".9" stroke-linejoin="round"/><use href="#a3m3" fill="#fffdf8" fill-opacity=".3" stroke="none" transform="matrix(0.5 0 0 0.5 32.6 4.5)"/><path id="a3m4" d="M68.7 -2.5C70 -5.3 68.4 -16 66.6 -19C64.9 -21.9 60.1 -21.7 58.2 -20.2C56.2 -18.8 54.8 -13.1 55 -10.1C55.2 -7.2 56.9 -3.8 59.2 -2.5C61.5 -1.3 67.5 0.2 68.7 -2.5Z" fill="#d9481f" stroke="#4a4640" stroke-opacity=".38" stroke-width=".9" stroke-linejoin="round"/><use href="#a3m4" fill="#fffdf8" fill-opacity=".3" stroke="none" transform="matrix(0.5 0 0 0.5 32.6 -6.4)"/></g><g transform="translate(177.2 71.5) rotate(158.3)"><use href="#a3s5" fill="#a39d90"/><use href="#a3s5" fill="#c9c3b6" transform="matrix(0.98 0 0 0.84 0.4 1.2)"/><use href="#a3s5" fill="#e9e3d6" transform="matrix(0.9 0 0 0.38 1.9 3.3)"/><path id="a3m6" d="M-1.3 -0.7C-1.8 -1.8 -0.8 -5.2 0 -6.2C0.8 -7.3 2.3 -7.4 3.8 -7.3C5.3 -7.1 7.3 -6.2 8.9 -5.3C10.4 -4.5 13.2 -2.8 13.3 -2C13.4 -1.2 11.2 -0.8 9.5 -0.4C7.8 0 5 0.4 3.2 0.4C1.4 0.3 -0.7 0.4 -1.3 -0.7Z" fill="#d9481f" stroke="#4a4640" stroke-opacity=".38" stroke-width=".9" stroke-linejoin="round"/><use href="#a3m6" fill="#fffdf8" fill-opacity=".3" stroke="none" transform="matrix(0.5 0 0 0.5 2.9 1.1)"/></g><g transform="translate(147.8 83.2)"><circle r="6.4" fill="url(#a3-sph)"/></g><g transform="translate(200 66.3) rotate(-90)"><use href="#a3s17" fill="#a39d90"/><use href="#a3s17" fill="#c9c3b6" transform="matrix(0.98 0 0 0.84 1.1 -0.5)"/><use href="#a3s17" fill="#e9e3d6" transform="matrix(0.9 0 0 0.38 3.3 -1.4)"/></g><g transform="translate(200 38.8)"><circle r="15.5" fill="url(#a3-sph)"/></g><g transform="translate(222.8 80) rotate(152.9)"><use href="#a3s11" fill="#a39d90"/><use href="#a3s11" fill="#c9c3b6" transform="matrix(0.98 0 0 0.84 0.3 1.3)"/><use href="#a3s11" fill="#e9e3d6" transform="matrix(0.9 0 0 0.38 1.4 3.6)"/><path id="a3m12" d="M-1.1 -0.8C-1.6 -2 -0.7 -5.5 0 -6.6C0.7 -7.8 2 -7.9 3.3 -7.7C4.6 -7.6 6.4 -6.6 7.7 -5.7C9.1 -4.8 11.5 -3 11.6 -2.1C11.7 -1.2 9.8 -0.9 8.3 -0.4C6.8 0 4.3 0.4 2.8 0.4C1.2 0.3 -0.6 0.4 -1.1 -0.8Z" fill="#d9481f" stroke="#4a4640" stroke-opacity=".38" stroke-width=".9" stroke-linejoin="round"/><use href="#a3m12" fill="#fffdf8" fill-opacity=".3" stroke="none" transform="matrix(0.5 0 0 0.5 2.3 1.2)"/></g><g transform="translate(198.2 92.6)"><circle r="6.8" fill="url(#a3-sph)"/></g><g transform="translate(147.8 83.2) rotate(158.3)"><use href="#a3s7" fill="#a39d90"/><use href="#a3s7" fill="#c9c3b6" transform="matrix(0.98 0 0 0.84 0.4 0.9)"/><use href="#a3s7" fill="#e9e3d6" transform="matrix(0.9 0 0 0.38 1.7 2.5)"/></g><g transform="translate(121.1 93.9)"><circle r="5.6" fill="url(#a3-sph)"/></g><g transform="translate(198.2 92.6) rotate(152.9)"><use href="#a3s13" fill="#a39d90"/><use href="#a3s13" fill="#c9c3b6" transform="matrix(0.98 0 0 0.84 0.2 1)"/><use href="#a3s13" fill="#e9e3d6" transform="matrix(0.9 0 0 0.38 1.2 2.7)"/></g><g transform="translate(175.8 104.1)"><circle r="6" fill="url(#a3-sph)"/></g><line stroke="#4a4640" stroke-linecap="round" x1="121.1" y1="93.9" x2="175.8" y2="104.1" stroke-width="4.2"/><line stroke="#fffdf8" stroke-opacity=".22" stroke-width="1.1" x1="121.1" y1="93.9" x2="175.8" y2="104.1"/><ellipse rx="6.5" ry="4.2" fill="none" stroke="#4a4640" stroke-width="2.2" cx="121.1" cy="93.9"/><ellipse rx="6.5" ry="4.2" fill="none" stroke="#4a4640" stroke-width="2.2" cx="175.8" cy="104.1"/></svg>
