<svg xmlns="http://www.w3.org/2000/svg" viewBox="0 0 400 300"><title>Pallof 推 · Pallof Press</title><line x1="20" y1="286" x2="380" y2="286" stroke="#ddd5c5" stroke-width="4" stroke-linecap="round"/><rect x="55" y="40" width="10" height="244" rx="2" fill="#4a4640" opacity="1"/><circle cx="60" cy="130" r="7" fill="#ddd5c5" stroke="#4a4640" stroke-width="3"/><g transform="translate(212 174)"><g><g><g transform="rotate(5)"><g transform="translate(0 -60)"><g transform="rotate(12.07)"><animateTransform attributeName="transform" type="rotate" values="12.07;-81.56;12.07" dur="3s" repeatCount="indefinite" calcMode="spline" keyTimes="0;0.5;1" keySplines="0.45 0 0.55 1;0.45 0 0.55 1"/><line x1="0" y1="0" x2="0" y2="44" stroke="#a39d90" stroke-width="17" stroke-linecap="round"/><g transform="translate(0 44)"><g transform="rotate(-140.81)"><animateTransform attributeName="transform" type="rotate" values="-140.81;-1.77;-140.81" dur="3s" repeatCount="indefinite" calcMode="spline" keyTimes="0;0.5;1" keySplines="0.45 0 0.55 1;0.45 0 0.55 1"/><line x1="0" y1="0" x2="0" y2="40" stroke="#a39d90" stroke-width="15" stroke-linecap="round"/><g transform="translate(0 40)"><g><circle cx="0" cy="0" r="8" fill="#a39d90"/></g></g></g></g></g></g></g></g></g></g><g transform="translate(212 174)"><g><g><g transform="rotate(5)"><g transform="translate(0 -60)"><g transform="rotate(12.07)"><animateTransform attributeName="transform" type="rotate" values="12.07;-81.56;12.07" dur="3s" repeatCount="indefinite" calcMode="spline" keyTimes="0;0.5;1" keySplines="0.45 0 0.55 1;0.45 0 0.55 1"/><line x1="0" y1="0" x2="0" y2="44" stroke="#c9c3b6" stroke-width="14" stroke-linecap="round"/><line x1="2.8" y1="0" x2="2.8" y2="12.32" stroke="#f0a58a" stroke-width="8.4" stroke-linecap="round"/><g transform="translate(0 44)"><g transform="rotate(-140.81)"><animateTransform attributeName="transform" type="rotate" values="-140.81;-1.77;-140.81" dur="3s" repeatCount="indefinite" calcMode="spline" keyTimes="0;0.5;1" keySplines="0.45 0 0.55 1;0.45 0 0.55 1"/><line x1="0" y1="0" x2="0" y2="40" stroke="#c9c3b6" stroke-width="12" stroke-linecap="round"/><g transform="translate(0 40)"><g><circle cx="0" cy="0" r="6.5" fill="#c9c3b6"/></g></g></g></g></g></g></g></g></g></g><g transform="translate(212 174)"><g><g><g transform="rotate(-12.25)"><line x1="0" y1="0" x2="0" y2="58" stroke="#a39d90" stroke-width="21" stroke-linecap="round"/><g transform="translate(0 58)"><g transform="rotate(42.61)"><line x1="0" y1="0" x2="0" y2="56" stroke="#a39d90" stroke-width="18" stroke-linecap="round"/><g transform="translate(0 56)"><g transform="rotate(-30.36)"><line x1="-4" y1="0" x2="19" y2="0" stroke="#a39d90" stroke-width="12" stroke-linecap="round"/></g></g></g></g></g></g></g></g><g transform="translate(212 174)"><g><g><g transform="rotate(-12.25)"><line x1="0" y1="0" x2="0" y2="58" stroke="#c9c3b6" stroke-width="18" stroke-linecap="round"/><g transform="translate(0 58)"><g transform="rotate(42.61)"><line x1="0" y1="0" x2="0" y2="56" stroke="#c9c3b6" stroke-width="15" stroke-linecap="round"/><g transform="translate(0 56)"><g transform="rotate(-30.36)"><line x1="-4" y1="0" x2="19" y2="0" stroke="#c9c3b6" stroke-width="9" stroke-linecap="round"/></g></g></g></g></g></g></g></g><g transform="translate(212 174)"><g><g><g transform="rotate(5)"><line x1="0" y1="0" x2="0" y2="-66" stroke="#a39d90" stroke-width="29" stroke-linecap="round"/><g transform="translate(0 -66)"><g><line x1="0" y1="0" x2="0" y2="-12" stroke="#a39d90" stroke-width="15" stroke-linecap="round"/><circle cx="0" cy="-25" r="16.5" fill="#a39d90"/></g></g></g></g><circle cx="-4" cy="3" r="13.5" fill="#a39d90"/></g></g><g transform="translate(212 174)"><g><g><g transform="rotate(5)"><line x1="0" y1="0" x2="0" y2="-66" stroke="#c9c3b6" stroke-width="26" stroke-linecap="round"/><line x1="0" y1="-11.88" x2="0" y2="-34.32" stroke="#d9481f" stroke-width="10.4" stroke-linecap="round"/><line x1="6.5" y1="-9.9" x2="6.5" y2="-36.3" stroke="#d9481f" stroke-width="13" stroke-linecap="round"/><g transform="translate(0 -66)"><g><line x1="0" y1="0" x2="0" y2="-12" stroke="#c9c3b6" stroke-width="12" stroke-linecap="round"/><circle cx="0" cy="-25" r="15" fill="#c9c3b6"/></g></g></g></g><circle cx="-4" cy="3" r="12" fill="#c9c3b6"/></g></g><line stroke="#4a4640" stroke-linecap="round" stroke-width="2.5" x1="60" y1="130" x2="237.58" y2="134.08"><animate attributeName="x2" values="237.58;237.74;238.24;239.1;240.34;241.99;244.06;246.57;249.52;252.9;256.68;260.78;265.12;269.59;274.04;278.32;282.3;285.87;288.95;291.53;293.62;295.24;296.48;297.39;298.04;298.49;298.8;299;299.12;299.18;299.2;299.18;299.12;299;298.8;298.49;298.04;297.39;296.48;295.24;293.62;291.53;288.95;285.87;282.3;278.32;274.04;269.59;265.12;260.78;256.68;252.9;249.52;246.57;244.06;241.99;240.34;239.1;238.24;237.74;237.58" dur="3s" repeatCount="indefinite" calcMode="linear" keyTimes="0;0.02;0.03;0.05;0.07;0.08;0.1;0.12;0.13;0.15;0.17;0.18;0.2;0.22;0.23;0.25;0.27;0.28;0.3;0.32;0.33;0.35;0.37;0.38;0.4;0.42;0.43;0.45;0.47;0.48;0.5;0.52;0.53;0.55;0.57;0.58;0.6;0.62;0.63;0.65;0.67;0.68;0.7;0.72;0.73;0.75;0.77;0.78;0.8;0.82;0.83;0.85;0.87;0.88;0.9;0.92;0.93;0.95;0.97;0.98;1"/><animate attributeName="y2" values="134.08;134.17;134.44;134.9;135.54;136.37;137.35;138.46;139.66;140.89;142.08;143.15;144.01;144.61;144.87;144.78;144.33;143.56;142.54;141.35;140.07;138.77;137.53;136.37;135.35;134.48;133.77;133.22;132.84;132.62;132.54;132.62;132.84;133.22;133.77;134.48;135.35;136.37;137.53;138.77;140.07;141.35;142.54;143.56;144.33;144.78;144.87;144.61;144.01;143.15;142.08;140.89;139.66;138.46;137.35;136.37;135.54;134.9;134.44;134.17;134.08" dur="3s" repeatCount="indefinite" calcMode="linear" keyTimes="0;0.02;0.03;0.05;0.07;0.08;0.1;0.12;0.13;0.15;0.17;0.18;0.2;0.22;0.23;0.25;0.27;0.28;0.3;0.32;0.33;0.35;0.37;0.38;0.4;0.42;0.43;0.45;0.47;0.48;0.5;0.52;0.53;0.55;0.57;0.58;0.6;0.62;0.63;0.65;0.67;0.68;0.7;0.72;0.73;0.75;0.77;0.78;0.8;0.82;0.83;0.85;0.87;0.88;0.9;0.92;0.93;0.95;0.97;0.98;1"/></line><g transform="translate(212 174)"><g><g><g transform="rotate(-30.76)"><line x1="0" y1="0" x2="0" y2="58" stroke="#a39d90" stroke-width="21" stroke-linecap="round"/><g transform="translate(0 58)"><g transform="rotate(40.7)"><line x1="0" y1="0" x2="0" y2="56" stroke="#a39d90" stroke-width="18" stroke-linecap="round"/><g transform="translate(0 56)"><g transform="rotate(-9.94)"><line x1="-4" y1="0" x2="19" y2="0" stroke="#a39d90" stroke-width="12" stroke-linecap="round"/></g></g></g></g></g></g></g></g><g transform="translate(212 174)"><g><g><g transform="rotate(-30.76)"><line x1="0" y1="0" x2="0" y2="58" stroke="#c9c3b6" stroke-width="18" stroke-linecap="round"/><g transform="translate(0 58)"><g transform="rotate(40.7)"><line x1="0" y1="0" x2="0" y2="56" stroke="#c9c3b6" stroke-width="15" stroke-linecap="round"/><g transform="translate(0 56)"><g transform="rotate(-9.94)"><line x1="-4" y1="0" x2="19" y2="0" stroke="#c9c3b6" stroke-width="9" stroke-linecap="round"/></g></g></g></g></g></g></g></g><g transform="translate(212 174)"><g><g><g transform="rotate(5)"><g transform="translate(0 -60)"><g transform="rotate(12.07)"><animateTransform attributeName="transform" type="rotate" values="12.07;-81.56;12.07" dur="3s" repeatCount="indefinite" calcMode="spline" keyTimes="0;0.5;1" keySplines="0.45 0 0.55 1;0.45 0 0.55 1"/><line x1="0" y1="0" x2="0" y2="44" stroke="#a39d90" stroke-width="17" stroke-linecap="round"/><g transform="translate(0 44)"><g transform="rotate(-140.81)"><animateTransform attributeName="transform" type="rotate" values="-140.81;-1.77;-140.81" dur="3s" repeatCount="indefinite" calcMode="spline" keyTimes="0;0.5;1" keySplines="0.45 0 0.55 1;0.45 0 0.55 1"/><line x1="0" y1="0" x2="0" y2="40" stroke="#a39d90" stroke-width="15" stroke-linecap="round"/><g transform="translate(0 40)"><g><circle cx="0" cy="0" r="8" fill="#a39d90"/></g></g></g></g></g></g></g></g></g></g><g transform="translate(212 174)"><g><g><g transform="rotate(5)"><g transform="translate(0 -60)"><g transform="rotate(12.07)"><animateTransform attributeName="transform" type="rotate" values="12.07;-81.56;12.07" dur="3s" repeatCount="indefinite" calcMode="spline" keyTimes="0;0.5;1" keySplines="0.45 0 0.55 1;0.45 0 0.55 1"/><line x1="0" y1="0" x2="0" y2="44" stroke="#c9c3b6" stroke-width="14" stroke-linecap="round"/><line x1="2.8" y1="0" x2="2.8" y2="12.32" stroke="#f0a58a" stroke-width="8.4" stroke-linecap="round"/><g transform="translate(0 44)"><g transform="rotate(-140.81)"><animateTransform attributeName="transform" type="rotate" values="-140.81;-1.77;-140.81" dur="3s" repeatCount="indefinite" calcMode="spline" keyTimes="0;0.5;1" keySplines="0.45 0 0.55 1;0.45 0 0.55 1"/><line x1="0" y1="0" x2="0" y2="40" stroke="#c9c3b6" stroke-width="12" stroke-linecap="round"/><g transform="translate(0 40)"><g><g transform="scale(1)"><g transform="rotate(213.73)"><animateTransform attributeName="transform" type="rotate" values="213.73;168.33;213.73" dur="3s" repeatCount="indefinite" calcMode="spline" keyTimes="0;0.5;1" keySplines="0.45 0 0.55 1;0.45 0 0.55 1"/><line x1="-8" y1="0" x2="8" y2="0" stroke="#4a4640" stroke-width="5" stroke-linecap="round"/></g></g><circle cx="0" cy="0" r="6.5" fill="#c9c3b6"/></g></g></g></g></g></g></g></g></g></g></svg>
