<svg xmlns="http://www.w3.org/2000/svg" viewBox="0 0 400 300"><title>登台阶 · Step Ups</title><defs><radialGradient id="a0-sph" cx=".5" cy=".5" r=".55" fx=".36" fy=".3"><stop offset="0" stop-color="#e9e3d6"/><stop offset=".55" stop-color="#c9c3b6"/><stop offset="1" stop-color="#a39d90"/></radialGradient><path id="a0s0" d="M-9.3 1.1C-9.1 5.5 -8.8 11.9 -6.2 14.3C-3.6 16.7 1.4 15.5 6.2 15.4C11 15.3 17.5 13.8 22.7 13.8C27.8 13.7 32.7 14.2 37.1 14.9C41.6 15.5 45.7 17.3 49.5 17.6C53.3 17.9 56.7 17.5 59.8 16.5C62.9 15.5 65.8 13.8 68.1 11.6C70.3 9.4 72.4 6 73.2 3.3C74.1 0.6 74.1 -1.7 73.2 -4.4C72.4 -7.1 70.6 -11 68.1 -13.2C65.5 -15.4 61.9 -17.1 57.8 -17.6C53.6 -18.1 48.1 -16.6 43.3 -15.9C38.5 -15.3 33.7 -13.8 28.9 -13.8C24.1 -13.7 18.9 -14.7 14.4 -15.4C10 -16.1 5.7 -18.7 2.1 -18.2C-1.5 -17.6 -5.3 -15.3 -7.2 -12.1C-9.1 -8.9 -9.5 -3.3 -9.3 1.1Z"/><path id="a0s2" d="M0 9.2L42.9 7A7 7 0 0 0 42.9 -7L0 -9.2A9.2 9.2 0 0 0 0 9.2Z"/><path id="a0s3" d="M0 7L41.7 5.2A5.2 5.2 0 0 0 41.7 -5.2L0 -7A7 7 0 0 0 0 7Z"/><path id="a0s4" d="M0 12.6L54.2 8.8A8.8 8.8 0 0 0 54.2 -8.8L0 -12.6A12.6 12.6 0 0 0 0 12.6Z"/><path id="a0s9" d="M0 8.8L56.5 5.8A5.8 5.8 0 0 0 56.5 -5.8L0 -8.8A8.8 8.8 0 0 0 0 8.8Z"/><path id="a0s11" d="M0 5.2L21.3 3.8A3.8 3.8 0 0 0 21.3 -3.8L0 -5.2A5.2 5.2 0 0 0 0 5.2Z"/><path id="a0s12" d="M0 8.6L47.8 6.6A6.6 6.6 0 0 0 47.8 -6.6L0 -8.6A8.6 8.6 0 0 0 0 8.6Z"/><path id="a0s13" d="M0 6.6L43.7 4.9A4.9 4.9 0 0 0 43.7 -4.9L0 -6.6A6.6 6.6 0 0 0 0 6.6Z"/><path id="a0s14" d="M0 11.8L62.9 8.3A8.3 8.3 0 0 0 62.9 -8.3L0 -11.8A11.8 11.8 0 0 0 0 11.8Z"/><path id="a0s19" d="M0 8.3L53.9 5.5A5.5 5.5 0 0 0 53.9 -5.5L0 -8.3A8.3 8.3 0 0 0 0 8.3Z"/><path id="a0s21" d="M0 4.9L21.3 3.6A3.6 3.6 0 0 0 21.3 -3.6L0 -4.9A4.9 4.9 0 0 0 0 4.9Z"/><path id="a0s22" d="M0 6.8L12.4 6.8A6.8 6.8 0 0 0 12.4 -6.8L0 -6.8A6.8 6.8 0 0 0 0 6.8Z"/><radialGradient id="a0-fade" gradientUnits="userSpaceOnUse" cx="200" cy="264" r="190" gradientTransform="translate(200 264) scale(1 .32) translate(-200 -264)"><stop offset="0" stop-color="#fff"/><stop offset=".55" stop-color="#fff" stop-opacity=".75"/><stop offset="1" stop-color="#fff" stop-opacity="0"/></radialGradient><mask id="a0-gm" maskUnits="userSpaceOnUse" x="0" y="0" width="400" height="300"><rect width="400" height="300" fill="url(#a0-fade)"/></mask><radialGradient id="a0-shd"><stop offset="0" stop-color="#a39d90" stop-opacity=".5"/><stop offset=".55" stop-color="#a39d90" stop-opacity=".22"/><stop offset="1" stop-color="#a39d90" stop-opacity="0"/></radialGradient></defs><g mask="url(#a0-gm)"><path d="M92.1 213.2L411.3 272.6L307.9 314.8L-11.3 255.4Z" fill="#efeadf" fill-opacity=".7"/><path d="M92.1 213.2L-11.3 255.4M114.9 217.5L11.5 259.7M137.7 221.7L34.3 263.9M160.5 225.9L57.1 268.2M183.3 230.2L79.9 272.4M206.1 234.4L102.7 276.6M228.9 238.6L125.5 280.9M251.7 242.9L148.3 285.1M274.5 247.1L171.1 289.4M297.3 251.4L193.9 293.6M320.1 255.6L216.7 297.8M342.9 259.8L239.5 302.1M365.7 264.1L262.3 306.3M388.5 268.3L285.1 310.5M411.3 272.6L307.9 314.8M92.1 213.2L411.3 272.6M74.9 220.3L394 279.6M57.6 227.3L376.8 286.6M40.4 234.3L359.6 293.7M23.2 241.4L342.4 300.7M6 248.4L325.1 307.7M-11.3 255.4L307.9 314.8" fill="none" stroke="#ddd5c5" stroke-width="1"/></g><g transform="rotate(10.5)"><ellipse fill="url(#a0-shd)" cx="253.7" cy="223" rx="49.6" ry="8.4"/></g><path d="M309.6 220.5L309.6 273.4L272.7 288.5L272.7 235.6Z" fill="#c9c3b6" stroke="#a39d90" stroke-width="1" stroke-linejoin="round"/><path d="M223 204.4L186.1 219.5L272.7 235.6L309.6 220.5Z" fill="#efeadf" stroke="#a39d90" stroke-width="1" stroke-linejoin="round"/><path d="M186.1 219.5L272.7 235.6L272.7 288.5L186.1 272.4Z" fill="#ddd5c5" stroke="#a39d90" stroke-width="1" stroke-linejoin="round"/><g opacity=".82"><g transform="translate(173.3 248) rotate(10.5)"><use href="#a0s21" fill="#a39d90"/><use href="#a0s21" fill="#c9c3b6" transform="matrix(0.98 0 0 0.84 -0.2 -0.5)"/><use href="#a0s21" fill="#e9e3d6" transform="matrix(0.9 0 0 0.38 -0.1 -1.5)"/></g><g transform="translate(199.3 199.6) rotate(114.5)"><use href="#a0s19" fill="#a39d90"/><use href="#a0s19" fill="#c9c3b6" transform="matrix(0.98 0 0 0.84 -0.1 0.9)"/><use href="#a0s19" fill="#e9e3d6" transform="matrix(0.9 0 0 0.38 0.8 2.4)"/><path id="a0m20" d="M3.2 2.4C3.2 3.6 5.2 6.6 7.6 7.6C9.9 8.5 14 8.2 17.3 8C20.5 7.7 23.9 6.7 27 5.9C30 5.1 32.2 3.9 35.6 3.2C39 2.5 45.1 2.3 47.5 2C49.8 1.6 51.6 1.1 49.6 1C47.6 0.9 40.3 1.4 35.6 1.4C30.9 1.4 26.3 1.2 21.6 1.1C16.9 1 10.6 0.6 7.6 0.8C4.5 1 3.2 1.3 3.2 2.4Z" fill="#f0a58a" stroke="#d9481f" stroke-opacity=".5" stroke-width=".9" stroke-linejoin="round"/><use href="#a0m20" fill="#fffdf8" fill-opacity=".3" stroke="none" transform="matrix(0.5 0 0 0.5 11.1 3.5)"/></g><g transform="translate(187.3 137.8) rotate(79)"><use href="#a0s14" fill="#a39d90"/><use href="#a0s14" fill="#c9c3b6" transform="matrix(0.98 0 0 0.84 -0.9 0.4)"/><use href="#a0s14" fill="#e9e3d6" transform="matrix(0.9 0 0 0.38 -1.1 1.2)"/><path id="a0m15" d="M6.3 5.7C5.5 6.4 14.3 9.9 20.1 10.5C26 11.1 35.7 10.1 41.5 9.5C47.4 8.9 52.3 7.6 55.4 6.8C58.4 6 61.7 4.9 59.8 4.6C57.9 4.4 49.8 5.2 44 5.4C38.3 5.7 31.5 6.2 25.2 6.2C18.9 6.3 7.1 5 6.3 5.7Z" fill="#f0a58a" stroke="#d9481f" stroke-opacity=".5" stroke-width=".9" stroke-linejoin="round"/><use href="#a0m15" fill="#fffdf8" fill-opacity=".3" stroke="none" transform="matrix(0.5 0 0 0.5 14.6 4.4)"/><path id="a0m16" d="M8.8 1.4C8.8 2.1 19.3 4.4 25.2 5C31 5.6 38.8 4.9 44 4.7C49.3 4.4 54.2 3.9 56.6 3.5C59 3 60.6 2.2 58.5 1.7C56.4 1.3 49.6 0.9 44 0.7C38.5 0.6 31 0.4 25.2 0.5C19.3 0.6 8.8 0.6 8.8 1.4Z" fill="#f0a58a" stroke="#d9481f" stroke-opacity=".5" stroke-width=".9" stroke-linejoin="round"/><use href="#a0m16" fill="#fffdf8" fill-opacity=".3" stroke="none" transform="matrix(0.5 0 0 0.5 15.4 2.2)"/><path id="a0m17" d="M5 -1.7C4 -3.4 8.4 -7.5 12.6 -8.9C16.8 -10.3 24.5 -10.4 30.2 -10.3C35.9 -10.3 42.4 -9.4 46.6 -8.5C50.7 -7.5 53.1 -5.9 55.4 -4.8C57.7 -3.7 60.6 -2.6 60.4 -1.9C60.2 -1.1 57.9 -1 54.1 -0.5C50.3 -0.1 43.6 0.5 37.7 0.8C31.9 1.1 24.3 1.7 18.9 1.3C13.4 0.9 6.1 0 5 -1.7Z" fill="#d9481f" stroke="#4a4640" stroke-opacity=".38" stroke-width=".9" stroke-linejoin="round"/><use href="#a0m17" fill="#fffdf8" fill-opacity=".3" stroke="none" transform="matrix(0.5 0 0 0.5 14.4 -1)"/><path d="M20.1 -5.4C23.1 -5.3 32.3 -5.7 37.7 -5.3C43.2 -5 50.3 -3.7 52.8 -3.4" fill="none" stroke="#4a4640" stroke-opacity=".3" stroke-width=".8" stroke-linecap="round"/><path id="a0m18" d="M-3.8 2.4C-5.2 3.9 -3.6 10.4 -1.3 11.8C1 13.3 7.3 12 10.1 11C12.8 10.1 15.5 7.4 15.1 6C14.7 4.7 10.7 3.5 7.5 2.9C4.4 2.2 -2.3 0.9 -3.8 2.4Z" fill="#d9481f" stroke="#4a4640" stroke-opacity=".38" stroke-width=".9" stroke-linejoin="round"/><use href="#a0m18" fill="#fffdf8" fill-opacity=".3" stroke="none" transform="matrix(0.5 0 0 0.5 -0.6 4.4)"/></g><g transform="translate(199.3 199.6)"><circle r="7.9" fill="url(#a0-sph)"/></g><g transform="translate(208.2 121.4) rotate(60.8)"><use href="#a0s13" fill="#a39d90"/><use href="#a0s13" fill="#c9c3b6" transform="matrix(0.98 0 0 0.84 -0.5 0)"/><use href="#a0s13" fill="#e9e3d6" transform="matrix(0.9 0 0 0.38 -0.3 -0.1)"/></g><g transform="translate(229.5 159.6)"><circle r="5.6" fill="url(#a0-sph)"/></g><g transform="translate(199.8 74.4) rotate(79.9)"><use href="#a0s12" fill="#a39d90"/><use href="#a0s12" fill="#c9c3b6" transform="matrix(0.98 0 0 0.84 -0.7 0.4)"/><use href="#a0s12" fill="#e9e3d6" transform="matrix(0.9 0 0 0.38 -0.8 1)"/></g><g transform="translate(208.2 121.4)"><circle r="6.4" fill="url(#a0-sph)"/></g></g><g transform="translate(163.2 122.8) rotate(91.8)"><use href="#a0s3" fill="#a39d90"/><use href="#a0s3" fill="#c9c3b6" transform="matrix(0.98 0 0 0.84 -0.4 0.5)"/><use href="#a0s3" fill="#e9e3d6" transform="matrix(0.9 0 0 0.38 -0.3 1.3)"/></g><g transform="translate(161.9 164.5)"><circle r="6" fill="url(#a0-sph)"/></g><g transform="translate(181.8 140.1) rotate(-82.9) scale(1 0.95)"><use href="#a0s0" fill="#a39d90"/><use href="#a0s0" fill="#c9c3b6" transform="matrix(0.94 0 0 0.86 4 -1.5)"/><use href="#a0s0" fill="#e9e3d6" transform="matrix(0.72 0 0 0.42 14.6 -4)"/><path id="a0m1" d="M11.3 -9.9C11.7 -12 9.5 -16.9 7.2 -18.5C5 -20.1 0.5 -20 -2.1 -19.6C-4.6 -19.2 -6.9 -17.7 -8.3 -15.9C-9.6 -14.2 -11 -10.6 -10.3 -8.8C-9.6 -7 -6.7 -5.4 -4.1 -4.9C-1.5 -4.5 2.6 -5.2 5.2 -6.1C7.7 -6.9 11 -7.8 11.3 -9.9Z" fill="#d9481f" stroke="#4a4640" stroke-opacity=".38" stroke-width=".9" stroke-linejoin="round"/><use href="#a0m1" fill="#fffdf8" fill-opacity=".3" stroke="none" transform="matrix(0.5 0 0 0.5 1.7 -7.2)"/><path d="M-9.3 -9.9C-8.6 -9.2 -6.9 -6.4 -5.2 -5.5C-3.4 -4.6 0 -4.6 1 -4.4" fill="none" stroke="#4a4640" stroke-opacity=".3" stroke-width=".8" stroke-linecap="round"/></g><g transform="translate(212.1 211.7) rotate(10.5)"><use href="#a0s11" fill="#a39d90"/><use href="#a0s11" fill="#c9c3b6" transform="matrix(0.98 0 0 0.84 -0.2 -0.6)"/><use href="#a0s11" fill="#e9e3d6" transform="matrix(0.9 0 0 0.38 -0.1 -1.6)"/></g><g transform="translate(176.2 142.3) rotate(16.1)"><use href="#a0s4" fill="#a39d90"/><use href="#a0s4" fill="#c9c3b6" transform="matrix(0.98 0 0 0.84 -0.6 -1.3)"/><use href="#a0s4" fill="#e9e3d6" transform="matrix(0.9 0 0 0.38 -0.5 -3.4)"/><path id="a0m5" d="M5.4 6.1C4.7 6.9 12.3 10.5 17.4 11.2C22.4 11.8 30.7 10.7 35.8 10.1C40.9 9.4 45.1 8.1 47.7 7.2C50.3 6.4 53.1 5.2 51.5 4.9C49.9 4.7 42.9 5.5 38 5.8C33 6 27.1 6.6 21.7 6.6C16.3 6.7 6.1 5.4 5.4 6.1Z" fill="#f0a58a" stroke="#d9481f" stroke-opacity=".5" stroke-width=".9" stroke-linejoin="round"/><use href="#a0m5" fill="#fffdf8" fill-opacity=".3" stroke="none" transform="matrix(0.5 0 0 0.5 13 1)"/><path id="a0m6" d="M7.6 1.4C7.6 2.2 16.6 4.7 21.7 5.3C26.8 5.9 33.4 5.2 38 5C42.5 4.7 46.7 4.2 48.8 3.7C50.9 3.1 52.2 2.3 50.4 1.8C48.6 1.3 42.8 1 38 0.8C33.2 0.6 26.8 0.4 21.7 0.6C16.6 0.7 7.6 0.7 7.6 1.4Z" fill="#f0a58a" stroke="#d9481f" stroke-opacity=".5" stroke-width=".9" stroke-linejoin="round"/><use href="#a0m6" fill="#fffdf8" fill-opacity=".3" stroke="none" transform="matrix(0.5 0 0 0.5 13.6 -1.4)"/><path id="a0m7" d="M4.3 -1.8C3.4 -3.7 7.2 -7.9 10.8 -9.5C14.5 -11 21.2 -11.1 26 -11C30.9 -10.9 36.5 -10 40.1 -9C43.7 -8 45.7 -6.3 47.7 -5.1C49.7 -3.9 52.2 -2.7 52.1 -2C51.9 -1.2 49.9 -1 46.6 -0.6C43.4 -0.1 37.6 0.5 32.5 0.8C27.5 1.1 21 1.8 16.3 1.4C11.6 0.9 5.2 0 4.3 -1.8Z" fill="#d9481f" stroke="#4a4640" stroke-opacity=".38" stroke-width=".9" stroke-linejoin="round"/><use href="#a0m7" fill="#fffdf8" fill-opacity=".3" stroke="none" transform="matrix(0.5 0 0 0.5 12.8 -4.8)"/><path d="M17.4 -5.7C19.9 -5.7 27.8 -6 32.5 -5.7C37.2 -5.3 43.4 -3.9 45.6 -3.6" fill="none" stroke="#4a4640" stroke-opacity=".3" stroke-width=".8" stroke-linecap="round"/><path id="a0m8" d="M-3.3 2.5C-4.5 4.1 -3.1 11.1 -1.1 12.6C0.9 14.1 6.3 12.8 8.7 11.8C11 10.7 13.4 7.9 13 6.4C12.7 5 9.2 3.7 6.5 3C3.8 2.4 -2 0.9 -3.3 2.5Z" fill="#d9481f" stroke="#4a4640" stroke-opacity=".38" stroke-width=".9" stroke-linejoin="round"/><use href="#a0m8" fill="#fffdf8" fill-opacity=".3" stroke="none" transform="matrix(0.5 0 0 0.5 -0.2 0.9)"/></g><g transform="translate(228.3 157.4)"><circle r="8.4" fill="url(#a0-sph)"/></g><g transform="translate(178.9 82.9) rotate(111.4)"><use href="#a0s2" fill="#a39d90"/><use href="#a0s2" fill="#c9c3b6" transform="matrix(0.98 0 0 0.84 -0.4 1)"/><use href="#a0s2" fill="#e9e3d6" transform="matrix(0.9 0 0 0.38 -0.2 2.7)"/></g><g transform="translate(163.2 122.8)"><circle r="6.8" fill="url(#a0-sph)"/></g><g transform="translate(190.1 72.5) rotate(-82.9)"><use href="#a0s22" fill="#a39d90"/><use href="#a0s22" fill="#c9c3b6" transform="matrix(0.98 0 0 0.84 1 -0.6)"/><use href="#a0s22" fill="#e9e3d6" transform="matrix(0.9 0 0 0.38 3.1 -1.7)"/></g><g transform="translate(228.3 157.4) rotate(102.9)"><use href="#a0s9" fill="#a39d90"/><use href="#a0s9" fill="#c9c3b6" transform="matrix(0.98 0 0 0.84 -0.3 0.7)"/><use href="#a0s9" fill="#e9e3d6" transform="matrix(0.9 0 0 0.38 0.4 2.1)"/><path id="a0m10" d="M3.4 2.6C3.4 3.8 5.5 7.1 7.9 8C10.4 9 14.7 8.8 18.1 8.5C21.5 8.2 25 7.1 28.2 6.3C31.4 5.4 33.7 4.1 37.3 3.4C40.8 2.7 47.2 2.5 49.7 2.1C52.1 1.7 54 1.2 51.9 1.1C49.9 1 42.2 1.5 37.3 1.5C32.4 1.5 27.5 1.3 22.6 1.2C17.7 1.1 11.1 0.6 7.9 0.8C4.7 1.1 3.4 1.4 3.4 2.6Z" fill="#f0a58a" stroke="#d9481f" stroke-opacity=".5" stroke-width=".9" stroke-linejoin="round"/><use href="#a0m10" fill="#fffdf8" fill-opacity=".3" stroke="none" transform="matrix(0.5 0 0 0.5 11.2 3.4)"/></g><g transform="translate(193.3 46.9)"><circle r="15.5" fill="url(#a0-sph)"/><ellipse cx="-9.8" cy="3.7" rx="2.8" ry="3.8" fill="#a39d90" fill-opacity=".55"/></g></svg>
