<svg xmlns="http://www.w3.org/2000/svg" viewBox="0 0 400 300"><title>TRX 划船 · TRX Row</title><defs><radialGradient id="a6-sph" cx=".5" cy=".5" r=".55" fx=".36" fy=".3"><stop offset="0" stop-color="#e9e3d6"/><stop offset=".55" stop-color="#c9c3b6"/><stop offset="1" stop-color="#a39d90"/></radialGradient><path id="a6s0" d="M-9.9 1.1C-9.7 5.5 -9.3 11.9 -6.6 14.3C-3.8 16.7 1.5 15.5 6.6 15.4C11.7 15.3 18.7 13.8 24.2 13.8C29.7 13.7 34.8 14.2 39.6 14.9C44.4 15.5 48.8 17.3 52.8 17.6C56.8 17.9 60.5 17.5 63.8 16.5C67.1 15.5 70.2 13.8 72.6 11.6C75 9.4 77.2 6 78.1 3.3C79 0.6 79 -1.7 78.1 -4.4C77.2 -7.1 75.3 -11 72.6 -13.2C69.8 -15.4 66 -17.1 61.6 -17.6C57.2 -18.1 51.3 -16.6 46.2 -15.9C41.1 -15.3 35.9 -13.8 30.8 -13.8C25.7 -13.7 20.2 -14.7 15.4 -15.4C10.6 -16.1 6 -18.7 2.2 -18.2C-1.6 -17.6 -5.7 -15.3 -7.7 -12.1C-9.7 -8.9 -10.1 -3.3 -9.9 1.1Z"/><path id="a6s3" d="M0 9.2L48.2 7A7 7 0 0 0 48.2 -7L0 -9.2A9.2 9.2 0 0 0 0 9.2Z"/><path id="a6s6" d="M0 7L37.3 5.2A5.2 5.2 0 0 0 37.3 -5.2L0 -7A7 7 0 0 0 0 7Z"/><path id="a6s7" d="M0 12.6L63.8 8.8A8.8 8.8 0 0 0 63.8 -8.8L0 -12.6A12.6 12.6 0 0 0 0 12.6Z"/><path id="a6s8" d="M0 8.8L61.6 5.8A5.8 5.8 0 0 0 61.6 -5.8L0 -8.8A8.8 8.8 0 0 0 0 8.8Z"/><path id="a6s9" d="M0 5.2L21.3 3.8A3.8 3.8 0 0 0 21.3 -3.8L0 -5.2A5.2 5.2 0 0 0 0 5.2Z"/><path id="a6s10" d="M0 8.6L48.2 6.6A6.6 6.6 0 0 0 48.2 -6.6L0 -8.6A8.6 8.6 0 0 0 0 8.6Z"/><path id="a6s13" d="M0 6.6L36.1 4.9A4.9 4.9 0 0 0 36.1 -4.9L0 -6.6A6.6 6.6 0 0 0 0 6.6Z"/><path id="a6s14" d="M0 11.8L63.8 8.3A8.3 8.3 0 0 0 63.8 -8.3L0 -11.8A11.8 11.8 0 0 0 0 11.8Z"/><path id="a6s15" d="M0 8.3L61.6 5.5A5.5 5.5 0 0 0 61.6 -5.5L0 -8.3A8.3 8.3 0 0 0 0 8.3Z"/><path id="a6s16" d="M0 4.9L21.3 3.6A3.6 3.6 0 0 0 21.3 -3.6L0 -4.9A4.9 4.9 0 0 0 0 4.9Z"/><path id="a6s17" d="M0 6.8L13.2 6.8A6.8 6.8 0 0 0 13.2 -6.8L0 -6.8A6.8 6.8 0 0 0 0 6.8Z"/><radialGradient id="a6-fade" gradientUnits="userSpaceOnUse" cx="200" cy="264" r="190" gradientTransform="translate(200 264) scale(1 .32) translate(-200 -264)"><stop offset="0" stop-color="#fff"/><stop offset=".55" stop-color="#fff" stop-opacity=".75"/><stop offset="1" stop-color="#fff" stop-opacity="0"/></radialGradient><mask id="a6-gm" maskUnits="userSpaceOnUse" x="0" y="0" width="400" height="300"><rect width="400" height="300" fill="url(#a6-fade)"/></mask><radialGradient id="a6-shd"><stop offset="0" stop-color="#a39d90" stop-opacity=".5"/><stop offset=".55" stop-color="#a39d90" stop-opacity=".22"/><stop offset="1" stop-color="#a39d90" stop-opacity="0"/></radialGradient></defs><g mask="url(#a6-gm)"><path d="M92.1 213.2L411.3 272.6L307.9 314.8L-11.3 255.4Z" fill="#efeadf" fill-opacity=".7"/><path d="M92.1 213.2L-11.3 255.4M114.9 217.5L11.5 259.7M137.7 221.7L34.3 263.9M160.5 225.9L57.1 268.2M183.3 230.2L79.9 272.4M206.1 234.4L102.7 276.6M228.9 238.6L125.5 280.9M251.7 242.9L148.3 285.1M274.5 247.1L171.1 289.4M297.3 251.4L193.9 293.6M320.1 255.6L216.7 297.8M342.9 259.8L239.5 302.1M365.7 264.1L262.3 306.3M388.5 268.3L285.1 310.5M411.3 272.6L307.9 314.8M92.1 213.2L411.3 272.6M74.9 220.3L394 279.6M57.6 227.3L376.8 286.6M40.4 234.3L359.6 293.7M23.2 241.4L342.4 300.7M6 248.4L325.1 307.7M-11.3 255.4L307.9 314.8" fill="none" stroke="#ddd5c5" stroke-width="1"/></g><g transform="rotate(10.5)"><ellipse fill="url(#a6-shd)" cx="255.7" cy="223" rx="73.6" ry="8.4"><animate attributeName="cx" values="255.7;256.2;257.7;260.3;263.8;267.3;269.9;271.4;271.9;271.4;269.9;267.3;263.8;260.3;257.7;256.2;255.7" dur="2.8s" repeatCount="indefinite"/><animate attributeName="rx" values="73.6;73.2;71.7;69.2;65.7;62.2;59.4;57.9;57.4;57.9;59.4;62.2;65.7;69.2;71.7;73.2;73.6" dur="2.8s" repeatCount="indefinite"/></ellipse></g><path d="M342.6 -4.2L342.6 2.1L332.8 6.1L332.8 -0.2Z" fill="#4a4640" stroke="#4a4640" stroke-width="1" stroke-linejoin="round"/><path d="M313.4 -9.7L303.6 -5.7L332.8 -0.2L342.6 -4.2Z" fill="#4a4640" stroke="#4a4640" stroke-width="1" stroke-linejoin="round"/><path d="M313.4 -9.7L303.6 -5.7L332.8 -0.2L342.6 -4.2Z" fill="#fffdf8" fill-opacity=".14"/><path d="M303.6 -5.7L332.8 -0.2L332.8 6.1L303.6 0.7Z" fill="#4a4640" stroke="#4a4640" stroke-width="1" stroke-linejoin="round"/><circle cx="323.1" cy="7.7" r="4.5" fill="none" stroke="#4a4640" stroke-width="2.4"/><line stroke="#4a4640" stroke-width="4.6" stroke-linecap="round" x1="323.1" y1="7.7" x2="235.8" y2="56"><animate attributeName="x2" values="235.8;237.5;242.3;247.2;246.6;239;229.9;224.1;222.2;224.1;229.9;239;246.6;247.2;242.3;237.5;235.8" dur="2.8s" repeatCount="indefinite"/><animate attributeName="y2" values="56;57.9;64.4;76.4;90.6;99.2;100.4;98.8;97.9;98.8;100.4;99.2;90.6;76.4;64.4;57.9;56" dur="2.8s" repeatCount="indefinite"/></line><line stroke="#fffdf8" stroke-opacity=".2" stroke-width="1.2" x1="323.1" y1="7.7" x2="235.8" y2="56"><animate attributeName="x2" values="235.8;237.5;242.3;247.2;246.6;239;229.9;224.1;222.2;224.1;229.9;239;246.6;247.2;242.3;237.5;235.8" dur="2.8s" repeatCount="indefinite"/><animate attributeName="y2" values="56;57.9;64.4;76.4;90.6;99.2;100.4;98.8;97.9;98.8;100.4;99.2;90.6;76.4;64.4;57.9;56" dur="2.8s" repeatCount="indefinite"/></line><g opacity=".82"><g transform="translate(171.5 90.8) rotate(-27.3) scale(0.8 1)"><animateTransform attributeName="transform" type="translate" values="171.5 90.8;172.2 90.4;174.6 89.3;179 87.3;184.8 84.9;190.7 82.5;195.1 80.7;197.7 79.8;198.4 79.5;197.7 79.8;195.1 80.7;190.7 82.5;184.8 84.9;179 87.3;174.6 89.3;172.2 90.4;171.5 90.8" dur="2.8s" repeatCount="indefinite"/><animateTransform attributeName="transform" type="rotate" values="-27.3;-23.1;-9.4;13.4;39.1;60.8;76.4;85.4;88.2;85.4;76.4;60.8;39.1;13.4;-9.4;-23.1;-27.3" additive="sum" dur="2.8s" repeatCount="indefinite"/><animateTransform attributeName="transform" type="scale" values="0.8 1;0.8 1;0.81 1;0.86 1;0.94 1;1 1;1 1;0.98 1;0.97 1;0.98 1;1 1;1 1;0.94 1;0.86 1;0.81 1;0.8 1;0.8 1" additive="sum" dur="2.8s" repeatCount="indefinite"/><use href="#a6s10" fill="#a39d90"/><use href="#a6s10" fill="#c9c3b6" transform="matrix(0.98 0 0 0.84 -0.5 -0.7)"/><use href="#a6s10" fill="#e9e3d6" transform="matrix(0.9 0 0 0.38 -0.4 -1.8)"/><path id="a6m11" d="M14.5 -1.6C13.8 -2.5 17.7 -5.4 20.2 -6.4C22.8 -7.3 26.8 -7.6 29.9 -7.4C32.9 -7.1 36.3 -5.9 38.6 -5C40.8 -4.1 43.9 -2.7 43.4 -2C42.9 -1.3 38.9 -1.1 35.7 -0.9C32.5 -0.6 27.6 -0.6 24.1 -0.8C20.6 -0.9 15.1 -0.7 14.5 -1.6Z" fill="#f0a58a" stroke="#d9481f" stroke-opacity=".5" stroke-width=".9" stroke-linejoin="round"/><use href="#a6m11" fill="#fffdf8" fill-opacity=".3" stroke="none" transform="matrix(0.5 0 0 0.5 12.5 -3.2)"/><path id="a6m12" d="M-1.9 0.9C-2.7 2.2 -1.3 6.1 0 7.4C1.3 8.6 3.5 8.7 5.8 8.6C8 8.4 11.1 7.3 13.5 6.3C15.9 5.3 20.1 3.3 20.2 2.3C20.4 1.4 17 0.9 14.5 0.5C11.9 0 7.6 -0.5 4.8 -0.4C2.1 -0.4 -1.1 -0.4 -1.9 0.9Z" fill="#f0a58a" stroke="#d9481f" stroke-opacity=".5" stroke-width=".9" stroke-linejoin="round"/><use href="#a6m12" fill="#fffdf8" fill-opacity=".3" stroke="none" transform="matrix(0.5 0 0 0.5 1.8 0.4)"/></g><g transform="translate(205.8 73.1)"><animateTransform attributeName="transform" type="translate" values="205.8 73.1;207.7 75.3;213 83;219.1 96.9;220.1 113.5;214.2 124.6;206.5 127.5;201.4 126.8;199.9 126.3;201.4 126.8;206.5 127.5;214.2 124.6;220.1 113.5;219.1 96.9;213 83;207.7 75.3;205.8 73.1" dur="2.8s" repeatCount="indefinite"/><circle r="6.4" fill="url(#a6-sph)"/></g><g transform="translate(196.3 151.5) rotate(62.5)"><animateTransform attributeName="transform" type="translate" values="196.3 151.5;196.8 151.3;198.5 150.6;201.3 149.4;205.2 147.8;209 146.2;211.9 145;213.5 144.4;214 144.1;213.5 144.4;211.9 145;209 146.2;205.2 147.8;201.3 149.4;198.5 150.6;196.8 151.3;196.3 151.5" dur="2.8s" repeatCount="indefinite"/><animateTransform attributeName="transform" type="rotate" values="62.5;62.8;63.6;65;66.9;68.8;70.2;71;71.3;71;70.2;68.8;66.9;65;63.6;62.8;62.5" additive="sum" dur="2.8s" repeatCount="indefinite"/><use href="#a6s14" fill="#a39d90"/><use href="#a6s14" fill="#c9c3b6" transform="matrix(0.98 0 0 0.84 -1 0.1)"/><use href="#a6s14" fill="#e9e3d6" transform="matrix(0.9 0 0 0.38 -1.2 0.3)"/></g><g transform="translate(225.8 208.1)"><animateTransform attributeName="transform" type="translate" values="225.8 208.1;226 208;226.9 207.7;228.3 207.3;230.2 206.5;232.1 205.7;233.4 205;234.2 204.6;234.4 204.4;234.2 204.6;233.4 205;232.1 205.7;230.2 206.5;228.3 207.3;226.9 207.7;226 208;225.8 208.1" dur="2.8s" repeatCount="indefinite"/><circle r="7.9" fill="url(#a6-sph)"/></g><g transform="translate(225.8 208.1) rotate(63.1)"><animateTransform attributeName="transform" type="translate" values="225.8 208.1;226 208;226.9 207.7;228.3 207.3;230.2 206.5;232.1 205.7;233.4 205;234.2 204.6;234.4 204.4;234.2 204.6;233.4 205;232.1 205.7;230.2 206.5;228.3 207.3;226.9 207.7;226 208;225.8 208.1" dur="2.8s" repeatCount="indefinite"/><animateTransform attributeName="transform" type="rotate" values="63.1;63.3;64.2;65.6;67.5;69.4;70.8;71.6;71.9;71.6;70.8;69.4;67.5;65.6;64.2;63.3;63.1" additive="sum" dur="2.8s" repeatCount="indefinite"/><use href="#a6s15" fill="#a39d90"/><use href="#a6s15" fill="#c9c3b6" transform="matrix(0.98 0 0 0.84 -0.5 0.1)"/><use href="#a6s15" fill="#e9e3d6" transform="matrix(0.9 0 0 0.38 0.1 0.2)"/></g><g transform="translate(249.9 262.2) rotate(10.5)"><animateTransform attributeName="transform" type="translate" values="249.9 262.2;249.9 262.3;250 262.4;250.1 262.7;250.1 262.8;250.1 262.7;250 262.5;249.9 262.3;249.9 262.2;249.9 262.3;250 262.5;250.1 262.7;250.1 262.8;250.1 262.7;250 262.4;249.9 262.3;249.9 262.2" dur="2.8s" repeatCount="indefinite"/><animateTransform attributeName="transform" type="rotate" values="10.5;10.5;10.5;10.5;10.5;10.5;10.5;10.5;10.5;10.5;10.5;10.5;10.5;10.5;10.5;10.5;10.5" additive="sum" dur="2.8s" repeatCount="indefinite"/><use href="#a6s16" fill="#a39d90"/><use href="#a6s16" fill="#c9c3b6" transform="matrix(0.98 0 0 0.84 -0.2 -0.5)"/><use href="#a6s16" fill="#e9e3d6" transform="matrix(0.9 0 0 0.38 -0.1 -1.5)"/></g></g><g transform="translate(190.8 153.8) rotate(-116.9) scale(1 0.97)"><animateTransform attributeName="transform" type="translate" values="190.8 153.8;191.3 153.6;192.9 152.9;195.8 151.7;199.6 150.1;203.5 148.5;206.4 147.3;208 146.6;208.5 146.4;208 146.6;206.4 147.3;203.5 148.5;199.6 150.1;195.8 151.7;192.9 152.9;191.3 153.6;190.8 153.8" dur="2.8s" repeatCount="indefinite"/><animateTransform attributeName="transform" type="rotate" values="-116.9;-116.7;-115.8;-114.4;-112.5;-110.6;-109.2;-108.4;-108.1;-108.4;-109.2;-110.6;-112.5;-114.4;-115.8;-116.7;-116.9" additive="sum" dur="2.8s" repeatCount="indefinite"/><animateTransform attributeName="transform" type="scale" values="1 0.97;1 0.97;1 0.97;1 0.97;1 0.97;1 0.97;1 0.97;1 0.97;1 0.97;1 0.97;1 0.97;1 0.97;1 0.97;1 0.97;1 0.97;1 0.97;1 0.97" additive="sum" dur="2.8s" repeatCount="indefinite"/><use href="#a6s0" fill="#a39d90"/><use href="#a6s0" fill="#c9c3b6" transform="matrix(0.94 0 0 0.86 4.6 -0.2)"/><use href="#a6s0" fill="#e9e3d6" transform="matrix(0.72 0 0 0.42 16.4 -0.5)"/><path id="a6m1" d="M62.7 -6.6C64.2 -8.5 60.3 -15.5 57.2 -17C54.1 -18.6 48.8 -16.5 44 -15.9C39.2 -15.4 32.8 -14.3 28.6 -13.5C24.4 -12.8 18.3 -12.5 18.7 -11.5C19.1 -10.6 25.8 -8.7 30.8 -7.7C35.7 -6.7 43.1 -5.7 48.4 -5.5C53.7 -5.3 61.2 -4.7 62.7 -6.6Z" fill="#d9481f" stroke="#4a4640" stroke-opacity=".38" stroke-width=".9" stroke-linejoin="round"/><use href="#a6m1" fill="#fffdf8" fill-opacity=".3" stroke="none" transform="matrix(0.5 0 0 0.5 22.8 -5.7)"/><path id="a6m2" d="M68.2 -6.6C68.6 -8.7 68.2 -15.4 66 -17.2C63.8 -18.9 57.7 -17.8 55 -17.2C52.2 -16.5 49.5 -15 49.5 -13.2C49.5 -11.4 52.6 -8.1 55 -6.6C57.4 -5.1 61.6 -4.4 63.8 -4.4C66 -4.4 67.8 -4.5 68.2 -6.6Z" fill="#d9481f" stroke="#4a4640" stroke-opacity=".38" stroke-width=".9" stroke-linejoin="round"/><use href="#a6m2" fill="#fffdf8" fill-opacity=".3" stroke="none" transform="matrix(0.5 0 0 0.5 31.9 -5.6)"/></g><g transform="translate(158 89.2) rotate(-116.9)"><animateTransform attributeName="transform" type="translate" values="158 89.2;158.8 88.8;161.3 87.6;165.8 85.6;171.8 83;177.9 80.6;182.5 78.8;185.1 77.8;185.9 77.5;185.1 77.8;182.5 78.8;177.9 80.6;171.8 83;165.8 85.6;161.3 87.6;158.8 88.8;158 89.2" dur="2.8s" repeatCount="indefinite"/><animateTransform attributeName="transform" type="rotate" values="-116.9;-116.7;-115.8;-114.4;-112.5;-110.6;-109.2;-108.4;-108.1;-108.4;-109.2;-110.6;-112.5;-114.4;-115.8;-116.7;-116.9" additive="sum" dur="2.8s" repeatCount="indefinite"/><use href="#a6s17" fill="#a39d90"/><use href="#a6s17" fill="#c9c3b6" transform="matrix(0.98 0 0 0.84 1.2 -0.1)"/><use href="#a6s17" fill="#e9e3d6" transform="matrix(0.9 0 0 0.38 3.6 -0.2)"/></g><g transform="translate(145.6 64.7)"><animateTransform attributeName="transform" type="translate" values="145.6 64.7;146.5 64.3;149.3 62.9;154.5 60.6;161.3 57.6;168.2 54.8;173.5 52.8;176.5 51.7;177.4 51.4;176.5 51.7;173.5 52.8;168.2 54.8;161.3 57.6;154.5 60.6;149.3 62.9;146.5 64.3;145.6 64.7" dur="2.8s" repeatCount="indefinite"/><circle r="15.5" fill="url(#a6-sph)"/><ellipse cx="-9.5" cy="5.2" rx="2.8" ry="3.8" fill="#a39d90" fill-opacity=".55"/></g><g transform="translate(185.3 156.1) rotate(63.7)"><animateTransform attributeName="transform" type="translate" values="185.3 156.1;185.8 155.8;187.4 155.2;190.3 154;194.1 152.4;197.9 150.8;200.8 149.6;202.4 148.9;202.9 148.7;202.4 148.9;200.8 149.6;197.9 150.8;194.1 152.4;190.3 154;187.4 155.2;185.8 155.8;185.3 156.1" dur="2.8s" repeatCount="indefinite"/><animateTransform attributeName="transform" type="rotate" values="63.7;63.9;64.8;66.2;68.1;70;71.4;72.2;72.5;72.2;71.4;70;68.1;66.2;64.8;63.9;63.7" additive="sum" dur="2.8s" repeatCount="indefinite"/><use href="#a6s7" fill="#a39d90"/><use href="#a6s7" fill="#c9c3b6" transform="matrix(0.98 0 0 0.84 -1.1 0.1)"/><use href="#a6s7" fill="#e9e3d6" transform="matrix(0.9 0 0 0.38 -1.5 0.4)"/></g><g transform="translate(213.5 213.1)"><animateTransform attributeName="transform" type="translate" values="213.5 213.1;213.7 213;214.5 212.8;216 212.3;217.9 211.6;219.8 210.7;221.1 210;221.9 209.6;222.1 209.5;221.9 209.6;221.1 210;219.8 210.7;217.9 211.6;216 212.3;214.5 212.8;213.7 213;213.5 213.1" dur="2.8s" repeatCount="indefinite"/><circle r="8.4" fill="url(#a6-sph)"/></g><g transform="translate(213.5 213.1) rotate(63.1)"><animateTransform attributeName="transform" type="translate" values="213.5 213.1;213.7 213;214.5 212.8;216 212.3;217.9 211.6;219.8 210.7;221.1 210;221.9 209.6;222.1 209.5;221.9 209.6;221.1 210;219.8 210.7;217.9 211.6;216 212.3;214.5 212.8;213.7 213;213.5 213.1" dur="2.8s" repeatCount="indefinite"/><animateTransform attributeName="transform" type="rotate" values="63.1;63.3;64.2;65.6;67.5;69.4;70.8;71.6;71.9;71.6;70.8;69.4;67.5;65.6;64.2;63.3;63.1" additive="sum" dur="2.8s" repeatCount="indefinite"/><use href="#a6s8" fill="#a39d90"/><use href="#a6s8" fill="#c9c3b6" transform="matrix(0.98 0 0 0.84 -0.5 0.1)"/><use href="#a6s8" fill="#e9e3d6" transform="matrix(0.9 0 0 0.38 -0.1 0.2)"/></g><g transform="translate(205.8 73.1) rotate(-29.6) scale(0.96 1)"><animateTransform attributeName="transform" type="translate" values="205.8 73.1;207.7 75.3;213 83;219.1 96.9;220.1 113.5;214.2 124.6;206.5 127.5;201.4 126.8;199.9 126.3;201.4 126.8;206.5 127.5;214.2 124.6;220.1 113.5;219.1 96.9;213 83;207.7 75.3;205.8 73.1" dur="2.8s" repeatCount="indefinite"/><animateTransform attributeName="transform" type="rotate" values="-29.6;-30.2;-32.3;-36.1;-40.9;-45.7;-49.2;-51.1;-51.7;-51.1;-49.2;-45.7;-40.9;-36.1;-32.3;-30.2;-29.6" additive="sum" dur="2.8s" repeatCount="indefinite"/><animateTransform attributeName="transform" type="scale" values="0.96 1;0.96 1;0.96 1;0.96 1;0.97 1;0.98 1;0.99 1;1 1;1 1;1 1;0.99 1;0.98 1;0.97 1;0.96 1;0.96 1;0.96 1;0.96 1" additive="sum" dur="2.8s" repeatCount="indefinite"/><use href="#a6s13" fill="#a39d90"/><use href="#a6s13" fill="#c9c3b6" transform="matrix(0.98 0 0 0.84 0.6 -0.9)"/><use href="#a6s13" fill="#e9e3d6" transform="matrix(0.9 0 0 0.38 2.4 -2.5)"/></g><g transform="translate(237.6 267.3) rotate(10.5)"><animateTransform attributeName="transform" type="translate" values="237.6 267.3;237.6 267.3;237.7 267.5;237.8 267.7;237.8 267.8;237.8 267.7;237.7 267.5;237.6 267.3;237.6 267.3;237.6 267.3;237.7 267.5;237.8 267.7;237.8 267.8;237.8 267.7;237.7 267.5;237.6 267.3;237.6 267.3" dur="2.8s" repeatCount="indefinite"/><animateTransform attributeName="transform" type="rotate" values="10.5;10.5;10.5;10.5;10.5;10.5;10.5;10.5;10.5;10.5;10.5;10.5;10.5;10.5;10.5;10.5;10.5" additive="sum" dur="2.8s" repeatCount="indefinite"/><use href="#a6s9" fill="#a39d90"/><use href="#a6s9" fill="#c9c3b6" transform="matrix(0.98 0 0 0.84 -0.2 -0.6)"/><use href="#a6s9" fill="#e9e3d6" transform="matrix(0.9 0 0 0.38 -0.1 -1.6)"/></g><g transform="translate(150.5 99.3) rotate(-27.3) scale(0.8 1)"><animateTransform attributeName="transform" type="translate" values="150.5 99.3;151.3 99;153.7 97.8;158.1 95.9;163.9 93.4;169.8 91;174.2 89.3;176.8 88.3;177.5 88;176.8 88.3;174.2 89.3;169.8 91;163.9 93.4;158.1 95.9;153.7 97.8;151.3 99;150.5 99.3" dur="2.8s" repeatCount="indefinite"/><animateTransform attributeName="transform" type="rotate" values="-27.3;-23.1;-9.4;13.4;39.1;60.8;76.4;85.4;88.2;85.4;76.4;60.8;39.1;13.4;-9.4;-23.1;-27.3" additive="sum" dur="2.8s" repeatCount="indefinite"/><animateTransform attributeName="transform" type="scale" values="0.8 1;0.8 1;0.81 1;0.86 1;0.94 1;1 1;1 1;0.98 1;0.97 1;0.98 1;1 1;1 1;0.94 1;0.86 1;0.81 1;0.8 1;0.8 1" additive="sum" dur="2.8s" repeatCount="indefinite"/><use href="#a6s3" fill="#a39d90"/><use href="#a6s3" fill="#c9c3b6" transform="matrix(0.98 0 0 0.84 -0.6 -0.7)"/><use href="#a6s3" fill="#e9e3d6" transform="matrix(0.9 0 0 0.38 -0.6 -1.9)"/><path id="a6m4" d="M14.5 -1.7C13.8 -2.7 17.7 -5.8 20.2 -6.8C22.8 -7.8 26.8 -8.1 29.9 -7.8C32.9 -7.6 36.3 -6.3 38.6 -5.4C40.8 -4.4 43.9 -2.9 43.4 -2.2C42.9 -1.4 38.9 -1.1 35.7 -0.9C32.5 -0.7 27.6 -0.7 24.1 -0.8C20.6 -0.9 15.1 -0.7 14.5 -1.7Z" fill="#f0a58a" stroke="#d9481f" stroke-opacity=".5" stroke-width=".9" stroke-linejoin="round"/><use href="#a6m4" fill="#fffdf8" fill-opacity=".3" stroke="none" transform="matrix(0.5 0 0 0.5 12.3 -3.4)"/><path id="a6m5" d="M-1.9 0.9C-2.7 2.3 -1.3 6.5 0 7.8C1.3 9.2 3.5 9.3 5.8 9.1C8 8.9 11.1 7.8 13.5 6.7C15.9 5.6 20.1 3.5 20.2 2.5C20.4 1.5 17 1 14.5 0.5C11.9 0 7.6 -0.5 4.8 -0.4C2.1 -0.4 -1.1 -0.5 -1.9 0.9Z" fill="#f0a58a" stroke="#d9481f" stroke-opacity=".5" stroke-width=".9" stroke-linejoin="round"/><use href="#a6m5" fill="#fffdf8" fill-opacity=".3" stroke="none" transform="matrix(0.5 0 0 0.5 1.7 0.4)"/></g><g transform="translate(184.9 81.6)"><animateTransform attributeName="transform" type="translate" values="184.9 81.6;186.8 83.8;192.1 91.5;198.2 105.5;199.2 122.1;193.3 133.1;185.5 136;180.5 135.4;179 134.8;180.5 135.4;185.5 136;193.3 133.1;199.2 122.1;198.2 105.5;192.1 91.5;186.8 83.8;184.9 81.6" dur="2.8s" repeatCount="indefinite"/><circle r="6.8" fill="url(#a6-sph)"/></g><g transform="translate(235.8 56)"><animateTransform attributeName="transform" type="translate" values="235.8 56;237.5 57.9;242.3 64.4;247.2 76.4;246.6 90.6;239 99.2;229.9 100.4;224.1 98.8;222.2 97.9;224.1 98.8;229.9 100.4;239 99.2;246.6 90.6;247.2 76.4;242.3 64.4;237.5 57.9;235.8 56" dur="2.8s" repeatCount="indefinite"/><path d="M-3.6 -8.5L-3.6 8.5A3.6 3.6 0 0 0 3.6 8.5L3.6 -8.5A3.6 3.6 0 0 0 -3.6 -8.5Z" fill="#4a4640"/><path d="M-2.2 -9.7L-2.2 7.3A1.2 1.2 0 0 0 0.2 7.3L0.2 -9.7A1.2 1.2 0 0 0 -2.2 -9.7Z" fill="#fffdf8" fill-opacity=".2"/><circle r="6" fill="url(#a6-sph)"/></g><g transform="translate(184.9 81.6) rotate(-29.3) scale(0.96 1)"><animateTransform attributeName="transform" type="translate" values="184.9 81.6;186.8 83.8;192.1 91.5;198.2 105.5;199.2 122.1;193.3 133.1;185.5 136;180.5 135.4;179 134.8;180.5 135.4;185.5 136;193.3 133.1;199.2 122.1;198.2 105.5;192.1 91.5;186.8 83.8;184.9 81.6" dur="2.8s" repeatCount="indefinite"/><animateTransform attributeName="transform" type="rotate" values="-29.3;-29.9;-32;-35.5;-40.2;-44.8;-48.2;-50.1;-50.7;-50.1;-48.2;-44.8;-40.2;-35.5;-32;-29.9;-29.3" additive="sum" dur="2.8s" repeatCount="indefinite"/><animateTransform attributeName="transform" type="scale" values="0.96 1;0.96 1;0.96 1;0.97 1;0.98 1;0.99 1;0.99 1;1 1;1 1;1 1;0.99 1;0.99 1;0.98 1;0.97 1;0.96 1;0.96 1;0.96 1" additive="sum" dur="2.8s" repeatCount="indefinite"/><use href="#a6s6" fill="#a39d90"/><use href="#a6s6" fill="#c9c3b6" transform="matrix(0.98 0 0 0.84 0.6 -1)"/><use href="#a6s6" fill="#e9e3d6" transform="matrix(0.9 0 0 0.38 2.5 -2.6)"/></g><g transform="translate(216.1 64.1)"><animateTransform attributeName="transform" type="translate" values="216.1 64.1;217.8 66;222.6 72.5;227.5 84.5;227 98.6;219.3 107.2;210.2 108.4;204.4 106.8;202.6 106;204.4 106.8;210.2 108.4;219.3 107.2;227 98.6;227.5 84.5;222.6 72.5;217.8 66;216.1 64.1" dur="2.8s" repeatCount="indefinite"/><path d="M-3.6 -8.5L-3.6 8.5A3.6 3.6 0 0 0 3.6 8.5L3.6 -8.5A3.6 3.6 0 0 0 -3.6 -8.5Z" fill="#4a4640"/><path d="M-2.2 -9.7L-2.2 7.3A1.2 1.2 0 0 0 0.2 7.3L0.2 -9.7A1.2 1.2 0 0 0 -2.2 -9.7Z" fill="#fffdf8" fill-opacity=".2"/><circle r="6" fill="url(#a6-sph)"/></g><line stroke="#4a4640" stroke-width="4.6" stroke-linecap="round" x1="323.1" y1="7.7" x2="216.1" y2="64.1"><animate attributeName="x2" values="216.1;217.8;222.6;227.5;227;219.3;210.2;204.4;202.6;204.4;210.2;219.3;227;227.5;222.6;217.8;216.1" dur="2.8s" repeatCount="indefinite"/><animate attributeName="y2" values="64.1;66;72.5;84.5;98.6;107.2;108.4;106.8;106;106.8;108.4;107.2;98.6;84.5;72.5;66;64.1" dur="2.8s" repeatCount="indefinite"/></line><line stroke="#fffdf8" stroke-opacity=".2" stroke-width="1.2" x1="323.1" y1="7.7" x2="216.1" y2="64.1"><animate attributeName="x2" values="216.1;217.8;222.6;227.5;227;219.3;210.2;204.4;202.6;204.4;210.2;219.3;227;227.5;222.6;217.8;216.1" dur="2.8s" repeatCount="indefinite"/><animate attributeName="y2" values="64.1;66;72.5;84.5;98.6;107.2;108.4;106.8;106;106.8;108.4;107.2;98.6;84.5;72.5;66;64.1" dur="2.8s" repeatCount="indefinite"/></line></svg>
