<svg xmlns="http://www.w3.org/2000/svg" viewBox="0 0 400 300"><title>哑铃罗马尼亚硬拉 · Dumbbell Romanian Deadlift</title><defs><radialGradient id="a7-sph" cx=".5" cy=".5" r=".55" fx=".36" fy=".3"><stop offset="0" stop-color="#e9e3d6"/><stop offset=".55" stop-color="#c9c3b6"/><stop offset="1" stop-color="#a39d90"/></radialGradient><path id="a7s0" d="M-9.4 1.1C-9.2 5.5 -8.9 11.9 -6.3 14.3C-3.7 16.7 1.4 15.5 6.3 15.4C11.1 15.3 17.8 13.8 23 13.8C28.2 13.7 33.1 14.2 37.6 14.9C42.1 15.5 46.3 17.3 50.2 17.6C54 17.9 57.5 17.5 60.6 16.5C63.7 15.5 66.7 13.8 69 11.6C71.2 9.4 73.3 6 74.2 3.3C75.1 0.6 75.1 -1.7 74.2 -4.4C73.3 -7.1 71.6 -11 69 -13.2C66.4 -15.4 62.7 -17.1 58.5 -17.6C54.3 -18.1 48.8 -16.6 43.9 -15.9C39 -15.3 34.1 -13.8 29.3 -13.8C24.4 -13.7 19.2 -14.7 14.6 -15.4C10.1 -16.1 5.7 -18.7 2.1 -18.2C-1.6 -17.6 -5.4 -15.3 -7.3 -12.1C-9.2 -8.9 -9.6 -3.3 -9.4 1.1Z"/><path id="a7s3" d="M0 9.2L46.5 7A7 7 0 0 0 46.5 -7L0 -9.2A9.2 9.2 0 0 0 0 9.2Z"/><path id="a7s4" d="M0 7L41.8 5.2A5.2 5.2 0 0 0 41.8 -5.2L0 -7A7 7 0 0 0 0 7Z"/><path id="a7s6" d="M0 12.6L63.8 8.8A8.8 8.8 0 0 0 63.8 -8.8L0 -12.6A12.6 12.6 0 0 0 0 12.6Z"/><path id="a7s10" d="M0 8.8L59.3 5.8A5.8 5.8 0 0 0 59.3 -5.8L0 -8.8A8.8 8.8 0 0 0 0 8.8Z"/><path id="a7s11" d="M0 5.2L21.3 3.8A3.8 3.8 0 0 0 21.3 -3.8L0 -5.2A5.2 5.2 0 0 0 0 5.2Z"/><path id="a7s12" d="M0 8.6L46.5 6.6A6.6 6.6 0 0 0 46.5 -6.6L0 -8.6A8.6 8.6 0 0 0 0 8.6Z"/><path id="a7s13" d="M0 6.6L42.8 4.9A4.9 4.9 0 0 0 42.8 -4.9L0 -6.6A6.6 6.6 0 0 0 0 6.6Z"/><path id="a7s15" d="M0 11.8L63.8 8.3A8.3 8.3 0 0 0 63.8 -8.3L0 -11.8A11.8 11.8 0 0 0 0 11.8Z"/><path id="a7s19" d="M0 8.3L59.3 5.5A5.5 5.5 0 0 0 59.3 -5.5L0 -8.3A8.3 8.3 0 0 0 0 8.3Z"/><path id="a7s20" d="M0 4.9L21.3 3.6A3.6 3.6 0 0 0 21.3 -3.6L0 -4.9A4.9 4.9 0 0 0 0 4.9Z"/><path id="a7s21" d="M0 6.8L12.5 6.8A6.8 6.8 0 0 0 12.5 -6.8L0 -6.8A6.8 6.8 0 0 0 0 6.8Z"/><g id="a7db22"><ellipse cx="8.7" cy="-3.6" rx="3.1" ry="2.5" transform="rotate(67.8 8.7 -3.6)" fill="#4a4640"/><path d="M9.9 -0.7L8.8 -0.3L6.5 -6L7.6 -6.4Z" fill="#4a4640"/><ellipse cx="7.6" cy="-3.1" rx="3.1" ry="2.5" transform="rotate(67.8 7.6 -3.1)" fill="#4a4640" stroke="#fffdf8" stroke-opacity=".14" stroke-width=".7"/><ellipse cx="7.6" cy="-3.1" rx="8.1" ry="6.5" transform="rotate(67.8 7.6 -3.1)" fill="#4a4640"/><path d="M10.7 4.4L8.7 5.2L2.6 -9.8L4.5 -10.7Z" fill="#4a4640"/><ellipse cx="5.7" cy="-2.3" rx="8.1" ry="6.5" transform="rotate(67.8 5.7 -2.3)" fill="#4a4640" stroke="#fffdf8" stroke-opacity=".14" stroke-width=".7"/><ellipse cx="5.7" cy="-2.3" rx="4.9" ry="3.9" transform="rotate(67.8 5.7 -2.3)" fill="none" stroke="#fffdf8" stroke-opacity=".22" stroke-width=".8"/><ellipse cx="4.9" cy="-3.8" rx="2.3" ry="1.8" transform="rotate(67.8 4.9 -3.8)" fill="#fffdf8" fill-opacity=".16"/><ellipse cx="5.7" cy="-2.3" rx="11" ry="8.8" transform="rotate(67.8 5.7 -2.3)" fill="#4a4640"/><path d="M9.8 7.9L7.2 8.9L-1.1 -11.4L1.5 -12.5Z" fill="#4a4640"/><ellipse cx="3.1" cy="-1.3" rx="11" ry="8.8" transform="rotate(67.8 3.1 -1.3)" fill="#4a4640" stroke="#fffdf8" stroke-opacity=".14" stroke-width=".7"/><path d="M2.9 -3.5L-4.5 -0.5A2.2 2.2 0 0 0 -2.9 3.5L4.5 0.5A2.2 2.2 0 0 0 2.9 -3.5Z" fill="#4a4640"/><path d="M3.1 -2.9L-4.3 0.1A0.8 0.8 0 0 0 -3.7 1.5L3.6 -1.5A0.8 0.8 0 0 0 3.1 -2.9Z" fill="#fffdf8" fill-opacity=".22"/></g><g id="a7db23"><ellipse cx="-3.1" cy="1.3" rx="11" ry="8.8" transform="rotate(67.8 -3.1 1.3)" fill="#4a4640"/><path d="M1.1 11.4L-1.5 12.5L-9.8 -7.9L-7.2 -8.9Z" fill="#4a4640"/><ellipse cx="-5.7" cy="2.3" rx="11" ry="8.8" transform="rotate(67.8 -5.7 2.3)" fill="#4a4640" stroke="#fffdf8" stroke-opacity=".14" stroke-width=".7"/><ellipse cx="-5.7" cy="2.3" rx="8.1" ry="6.5" transform="rotate(67.8 -5.7 2.3)" fill="#4a4640"/><path d="M-2.6 9.8L-4.5 10.7L-10.7 -4.4L-8.7 -5.2Z" fill="#4a4640"/><ellipse cx="-7.6" cy="3.1" rx="8.1" ry="6.5" transform="rotate(67.8 -7.6 3.1)" fill="#4a4640" stroke="#fffdf8" stroke-opacity=".14" stroke-width=".7"/><ellipse cx="-7.6" cy="3.1" rx="4.9" ry="3.9" transform="rotate(67.8 -7.6 3.1)" fill="none" stroke="#fffdf8" stroke-opacity=".22" stroke-width=".8"/><ellipse cx="-8.4" cy="1.7" rx="2.3" ry="1.8" transform="rotate(67.8 -8.4 1.7)" fill="#fffdf8" fill-opacity=".16"/><ellipse cx="-7.6" cy="3.1" rx="3.1" ry="2.5" transform="rotate(67.8 -7.6 3.1)" fill="#4a4640"/><path d="M-6.5 6L-7.6 6.4L-9.9 0.7L-8.8 0.3Z" fill="#4a4640"/><ellipse cx="-8.7" cy="3.6" rx="3.1" ry="2.5" transform="rotate(67.8 -8.7 3.6)" fill="#4a4640" stroke="#fffdf8" stroke-opacity=".14" stroke-width=".7"/></g><radialGradient id="a7-fade" gradientUnits="userSpaceOnUse" cx="200" cy="264" r="190" gradientTransform="translate(200 264) scale(1 .32) translate(-200 -264)"><stop offset="0" stop-color="#fff"/><stop offset=".55" stop-color="#fff" stop-opacity=".75"/><stop offset="1" stop-color="#fff" stop-opacity="0"/></radialGradient><mask id="a7-gm" maskUnits="userSpaceOnUse" x="0" y="0" width="400" height="300"><rect width="400" height="300" fill="url(#a7-fade)"/></mask><radialGradient id="a7-shd"><stop offset="0" stop-color="#a39d90" stop-opacity=".5"/><stop offset=".55" stop-color="#a39d90" stop-opacity=".22"/><stop offset="1" stop-color="#a39d90" stop-opacity="0"/></radialGradient></defs><g mask="url(#a7-gm)"><path d="M92.1 213.2L411.3 272.6L307.9 314.8L-11.3 255.4Z" fill="#efeadf" fill-opacity=".7"/><path d="M92.1 213.2L-11.3 255.4M114.9 217.5L11.5 259.7M137.7 221.7L34.3 263.9M160.5 225.9L57.1 268.2M183.3 230.2L79.9 272.4M206.1 234.4L102.7 276.6M228.9 238.6L125.5 280.9M251.7 242.9L148.3 285.1M274.5 247.1L171.1 289.4M297.3 251.4L193.9 293.6M320.1 255.6L216.7 297.8M342.9 259.8L239.5 302.1M365.7 264.1L262.3 306.3M388.5 268.3L285.1 310.5M411.3 272.6L307.9 314.8M92.1 213.2L411.3 272.6M74.9 220.3L394 279.6M57.6 227.3L376.8 286.6M40.4 234.3L359.6 293.7M23.2 241.4L342.4 300.7M6 248.4L325.1 307.7M-11.3 255.4L307.9 314.8" fill="none" stroke="#ddd5c5" stroke-width="1"/></g><g transform="rotate(10.5)"><ellipse fill="url(#a7-shd)" cx="262" cy="223" rx="23.7" ry="8.4"><animate attributeName="cx" values="262;261.6;260.3;260.5;263.8;264.9;263.9;262.6;262.1;262.6;263.9;264.9;263.8;260.5;260.3;261.6;262" dur="3s" repeatCount="indefinite"/><animate attributeName="rx" values="23.7;24.1;25.6;30.8;40.7;48.4;52.4;53.9;54.3;53.9;52.4;48.4;40.7;30.8;25.6;24.1;23.7" dur="3s" repeatCount="indefinite"/></ellipse></g><g opacity=".82"><g transform="translate(207.1 254.3) rotate(10.5)"><animateTransform attributeName="transform" type="translate" values="207.1 254.3;207.1 254.4;207.3 254.9;207.4 255.6;207.6 255.9;207.5 255.6;207.3 254.9;207.1 254.4;207.1 254.3;207.1 254.4;207.3 254.9;207.5 255.6;207.6 255.9;207.4 255.6;207.3 254.9;207.1 254.4;207.1 254.3" dur="3s" repeatCount="indefinite"/><animateTransform attributeName="transform" type="rotate" values="10.5;10.5;10.5;10.5;10.5;10.5;10.5;10.5;10.5;10.5;10.5;10.5;10.5;10.5;10.5;10.5;10.5" additive="sum" dur="3s" repeatCount="indefinite"/><use href="#a7s20" fill="#a39d90"/><use href="#a7s20" fill="#c9c3b6" transform="matrix(0.98 0 0 0.84 -0.2 -0.5)"/><use href="#a7s20" fill="#e9e3d6" transform="matrix(0.9 0 0 0.38 -0.1 -1.5)"/></g><g transform="translate(220.6 198.7) rotate(100) scale(0.96 1)"><animateTransform attributeName="transform" type="translate" values="220.6 198.7;220.4 198.7;219.6 198.9;218.1 198.9;216 198.5;213.7 197.6;211.8 196.6;210.7 195.9;210.3 195.7;210.7 195.9;211.8 196.6;213.7 197.6;216 198.5;218.1 198.9;219.6 198.9;220.4 198.7;220.6 198.7" dur="3s" repeatCount="indefinite"/><animateTransform attributeName="transform" type="rotate" values="100;99.7;98.7;97;94.7;92.5;90.8;89.9;89.6;89.9;90.8;92.5;94.7;97;98.7;99.7;100" additive="sum" dur="3s" repeatCount="indefinite"/><animateTransform attributeName="transform" type="scale" values="0.96 1;0.96 1;0.97 1;0.97 1;0.98 1;0.99 1;1 1;1 1;1 1;1 1;1 1;0.99 1;0.98 1;0.97 1;0.97 1;0.96 1;0.96 1" additive="sum" dur="3s" repeatCount="indefinite"/><use href="#a7s19" fill="#a39d90"/><use href="#a7s19" fill="#c9c3b6" transform="matrix(0.98 0 0 0.84 -0.3 0.6)"/><use href="#a7s19" fill="#e9e3d6" transform="matrix(0.9 0 0 0.38 0.4 1.6)"/></g><g transform="translate(206.4 137.1) rotate(77) scale(0.99 1)"><animateTransform attributeName="transform" type="translate" values="206.4 137.1;205.6 137.3;202.8 137.7;197.9 138.5;191.4 139.6;184.9 140.7;180 141.5;177.2 142;176.4 142.1;177.2 142;180 141.5;184.9 140.7;191.4 139.6;197.9 138.5;202.8 137.7;205.6 137.3;206.4 137.1" dur="3s" repeatCount="indefinite"/><animateTransform attributeName="transform" type="rotate" values="77;76.5;74.7;71.5;67.3;63.1;59.9;58.1;57.6;58.1;59.9;63.1;67.3;71.5;74.7;76.5;77" additive="sum" dur="3s" repeatCount="indefinite"/><animateTransform attributeName="transform" type="scale" values="0.99 1;0.99 1;0.99 1;1 1;1 1;1 1;1 1;0.99 1;0.99 1;0.99 1;1 1;1 1;1 1;1 1;0.99 1;0.99 1;0.99 1" additive="sum" dur="3s" repeatCount="indefinite"/><use href="#a7s15" fill="#a39d90"/><use href="#a7s15" fill="#c9c3b6" transform="matrix(0.98 0 0 0.84 -1 0.1)"/><use href="#a7s15" fill="#e9e3d6" transform="matrix(0.9 0 0 0.38 -1.2 0.4)"/><path id="a7m16" d="M6.4 5.7C5.5 6.4 14.5 9.9 20.4 10.5C26.4 11.1 36.2 10.1 42.1 9.5C48.1 8.9 53.1 7.6 56.1 6.8C59.2 6 62.5 4.9 60.6 4.6C58.7 4.4 50.5 5.2 44.7 5.4C38.8 5.7 31.9 6.2 25.5 6.2C19.1 6.3 7.2 5 6.4 5.7Z" fill="#d9481f" stroke="#4a4640" stroke-opacity=".38" stroke-width=".9" stroke-linejoin="round"/><use href="#a7m16" fill="#fffdf8" fill-opacity=".3" stroke="none" transform="matrix(0.5 0 0 0.5 14.8 3.8)"/><path id="a7m17" d="M8.9 1.4C8.9 2.1 19.6 4.4 25.5 5C31.5 5.6 39.3 4.9 44.7 4.7C50 4.4 55 3.9 57.4 3.5C59.9 3 61.5 2.2 59.3 1.7C57.2 1.3 50.3 0.9 44.7 0.7C39 0.6 31.5 0.4 25.5 0.5C19.6 0.6 8.9 0.6 8.9 1.4Z" fill="#d9481f" stroke="#4a4640" stroke-opacity=".38" stroke-width=".9" stroke-linejoin="round"/><use href="#a7m17" fill="#fffdf8" fill-opacity=".3" stroke="none" transform="matrix(0.5 0 0 0.5 15.5 1.5)"/><path id="a7m18" d="M-3.8 2.4C-5.3 3.9 -3.6 10.4 -1.3 11.8C1.1 13.3 7.4 12 10.2 11C13 10.1 15.7 7.4 15.3 6C14.9 4.7 10.8 3.5 7.7 2.9C4.5 2.2 -2.3 0.9 -3.8 2.4Z" fill="#d9481f" stroke="#4a4640" stroke-opacity=".38" stroke-width=".9" stroke-linejoin="round"/><use href="#a7m18" fill="#fffdf8" fill-opacity=".3" stroke="none" transform="matrix(0.5 0 0 0.5 -0.7 3.7)"/></g><g transform="translate(220.6 198.7)"><animateTransform attributeName="transform" type="translate" values="220.6 198.7;220.4 198.7;219.6 198.9;218.1 198.9;216 198.5;213.7 197.6;211.8 196.6;210.7 195.9;210.3 195.7;210.7 195.9;211.8 196.6;213.7 197.6;216 198.5;218.1 198.9;219.6 198.9;220.4 198.7;220.6 198.7" dur="3s" repeatCount="indefinite"/><circle r="7.9" fill="url(#a7-sph)"/></g><g transform="translate(215.2 119.1) rotate(91.6)"><animateTransform attributeName="transform" type="translate" values="215.2 119.1;216.3 119.8;220 122.7;225.9 129.8;232.2 142.9;235.7 159.2;236 172.9;235.2 180.9;234.8 183.4;235.2 180.9;236 172.9;235.7 159.2;232.2 142.9;225.9 129.8;220 122.7;216.3 119.8;215.2 119.1" dur="3s" repeatCount="indefinite"/><animateTransform attributeName="transform" type="rotate" values="91.6;91.6;91.6;91.6;91.6;91.6;91.6;91.6;91.6;91.6;91.6;91.6;91.6;91.6;91.6;91.6;91.6" additive="sum" dur="3s" repeatCount="indefinite"/><use href="#a7s13" fill="#a39d90"/><use href="#a7s13" fill="#c9c3b6" transform="matrix(0.98 0 0 0.84 -0.4 0.4)"/><use href="#a7s13" fill="#e9e3d6" transform="matrix(0.9 0 0 0.38 -0.1 1.2)"/><path id="a7m14" d="M1.7 -3.6C2.7 -5.2 4.8 -6.1 7.7 -6.3C10.6 -6.5 15 -5.4 19.3 -4.8C23.5 -4.1 30.2 -3.1 33.4 -2.4C36.6 -1.7 38.5 -1.4 38.5 -0.6C38.5 0.1 36.6 1.2 33.4 2.1C30.2 3 23.5 4.1 19.3 4.8C15 5.4 10.6 6.4 7.7 6.1C4.8 5.9 2.7 4.9 1.7 3.3C0.7 1.6 0.7 -2 1.7 -3.6Z" fill="#f0a58a" stroke="#d9481f" stroke-opacity=".5" stroke-width=".9" stroke-linejoin="round"/><use href="#a7m14" fill="#fffdf8" fill-opacity=".3" stroke="none" transform="matrix(0.5 0 0 0.5 7.3 0.9)"/></g><g transform="translate(214 161.9)"><animateTransform attributeName="transform" type="translate" values="214 161.9;215.1 162.6;218.7 165.5;224.7 172.6;231 185.7;234.5 202;234.8 215.7;234 223.7;233.6 226.2;234 223.7;234.8 215.7;234.5 202;231 185.7;224.7 172.6;218.7 165.5;215.1 162.6;214 161.9" dur="3s" repeatCount="indefinite"/><use href="#a7db22"/><circle r="6" fill="url(#a7-sph)"/><use href="#a7db23"/></g><g transform="translate(215.2 72.5) rotate(90)"><animateTransform attributeName="transform" type="translate" values="215.2 72.5;216.3 73.3;220 76.1;225.9 83.3;232.2 96.4;235.7 112.7;236 126.4;235.2 134.4;234.8 136.9;235.2 134.4;236 126.4;235.7 112.7;232.2 96.4;225.9 83.3;220 76.1;216.3 73.3;215.2 72.5" dur="3s" repeatCount="indefinite"/><animateTransform attributeName="transform" type="rotate" values="90;90;90;90;90;90;90;90;90;90;90;90;90;90;90;90;90" additive="sum" dur="3s" repeatCount="indefinite"/><use href="#a7s12" fill="#a39d90"/><use href="#a7s12" fill="#c9c3b6" transform="matrix(0.98 0 0 0.84 -0.6 0.5)"/><use href="#a7s12" fill="#e9e3d6" transform="matrix(0.9 0 0 0.38 -0.7 1.5)"/></g><g transform="translate(215.2 119.1)"><animateTransform attributeName="transform" type="translate" values="215.2 119.1;216.3 119.8;220 122.7;225.9 129.8;232.2 142.9;235.7 159.2;236 172.9;235.2 180.9;234.8 183.4;235.2 180.9;236 172.9;235.7 159.2;232.2 142.9;225.9 129.8;220 122.7;216.3 119.8;215.2 119.1" dur="3s" repeatCount="indefinite"/><circle r="6.4" fill="url(#a7-sph)"/></g></g><g transform="translate(194.8 259.3) rotate(10.5)"><animateTransform attributeName="transform" type="translate" values="194.8 259.3;194.8 259.5;194.9 260;195.1 260.6;195.3 260.9;195.2 260.6;195 260;194.8 259.5;194.8 259.3;194.8 259.5;195 260;195.2 260.6;195.3 260.9;195.1 260.6;194.9 260;194.8 259.5;194.8 259.3" dur="3s" repeatCount="indefinite"/><animateTransform attributeName="transform" type="rotate" values="10.5;10.5;10.5;10.5;10.5;10.5;10.5;10.5;10.5;10.5;10.5;10.5;10.5;10.5;10.5;10.5;10.5" additive="sum" dur="3s" repeatCount="indefinite"/><use href="#a7s11" fill="#a39d90"/><use href="#a7s11" fill="#c9c3b6" transform="matrix(0.98 0 0 0.84 -0.2 -0.6)"/><use href="#a7s11" fill="#e9e3d6" transform="matrix(0.9 0 0 0.38 -0.1 -1.6)"/></g><g transform="translate(208.3 203.7) rotate(100) scale(0.96 1)"><animateTransform attributeName="transform" type="translate" values="208.3 203.7;208.1 203.8;207.3 203.9;205.8 203.9;203.7 203.5;201.4 202.6;199.5 201.6;198.4 200.9;198 200.7;198.4 200.9;199.5 201.6;201.4 202.6;203.7 203.5;205.8 203.9;207.3 203.9;208.1 203.8;208.3 203.7" dur="3s" repeatCount="indefinite"/><animateTransform attributeName="transform" type="rotate" values="100;99.7;98.7;97;94.7;92.5;90.8;89.9;89.6;89.9;90.8;92.5;94.7;97;98.7;99.7;100" additive="sum" dur="3s" repeatCount="indefinite"/><animateTransform attributeName="transform" type="scale" values="0.96 1;0.96 1;0.97 1;0.97 1;0.98 1;0.99 1;1 1;1 1;1 1;1 1;1 1;0.99 1;0.98 1;0.97 1;0.97 1;0.96 1;0.96 1" additive="sum" dur="3s" repeatCount="indefinite"/><use href="#a7s10" fill="#a39d90"/><use href="#a7s10" fill="#c9c3b6" transform="matrix(0.98 0 0 0.84 -0.4 0.6)"/><use href="#a7s10" fill="#e9e3d6" transform="matrix(0.9 0 0 0.38 0.2 1.7)"/></g><g transform="translate(195.4 141.7) rotate(78.2) scale(0.99 1)"><animateTransform attributeName="transform" type="translate" values="195.4 141.7;194.5 141.8;191.8 142.3;186.8 143.1;180.3 144.1;173.8 145.2;168.9 146;166.1 146.5;165.3 146.6;166.1 146.5;168.9 146;173.8 145.2;180.3 144.1;186.8 143.1;191.8 142.3;194.5 141.8;195.4 141.7" dur="3s" repeatCount="indefinite"/><animateTransform attributeName="transform" type="rotate" values="78.2;77.7;75.9;72.7;68.5;64.3;61.1;59.3;58.8;59.3;61.1;64.3;68.5;72.7;75.9;77.7;78.2" additive="sum" dur="3s" repeatCount="indefinite"/><animateTransform attributeName="transform" type="scale" values="0.99 1;0.99 1;1 1;1 1;1 1;1 1;0.99 1;0.99 1;0.99 1;0.99 1;0.99 1;1 1;1 1;1 1;1 1;0.99 1;0.99 1" additive="sum" dur="3s" repeatCount="indefinite"/><use href="#a7s6" fill="#a39d90"/><use href="#a7s6" fill="#c9c3b6" transform="matrix(0.98 0 0 0.84 -1.1 0.2)"/><use href="#a7s6" fill="#e9e3d6" transform="matrix(0.9 0 0 0.38 -1.5 0.5)"/><path id="a7m7" d="M6.4 6.1C5.5 6.9 14.5 10.5 20.4 11.2C26.4 11.8 36.2 10.7 42.1 10.1C48.1 9.4 53.1 8.1 56.1 7.2C59.2 6.4 62.5 5.2 60.6 4.9C58.7 4.7 50.5 5.5 44.7 5.8C38.8 6 31.9 6.6 25.5 6.6C19.1 6.7 7.2 5.4 6.4 6.1Z" fill="#d9481f" stroke="#4a4640" stroke-opacity=".38" stroke-width=".9" stroke-linejoin="round"/><use href="#a7m7" fill="#fffdf8" fill-opacity=".3" stroke="none" transform="matrix(0.5 0 0 0.5 14.6 4.1)"/><path id="a7m8" d="M8.9 1.4C8.9 2.2 19.6 4.7 25.5 5.3C31.5 5.9 39.3 5.2 44.7 5C50 4.7 55 4.2 57.4 3.7C59.9 3.1 61.5 2.3 59.3 1.8C57.2 1.3 50.3 1 44.7 0.8C39 0.6 31.5 0.4 25.5 0.6C19.6 0.7 8.9 0.7 8.9 1.4Z" fill="#d9481f" stroke="#4a4640" stroke-opacity=".38" stroke-width=".9" stroke-linejoin="round"/><use href="#a7m8" fill="#fffdf8" fill-opacity=".3" stroke="none" transform="matrix(0.5 0 0 0.5 15.3 1.7)"/><path id="a7m9" d="M-3.8 2.5C-5.3 4.1 -3.6 11.1 -1.3 12.6C1.1 14.1 7.4 12.8 10.2 11.8C13 10.7 15.7 7.9 15.3 6.4C14.9 5 10.8 3.7 7.7 3C4.5 2.4 -2.3 0.9 -3.8 2.5Z" fill="#d9481f" stroke="#4a4640" stroke-opacity=".38" stroke-width=".9" stroke-linejoin="round"/><use href="#a7m9" fill="#fffdf8" fill-opacity=".3" stroke="none" transform="matrix(0.5 0 0 0.5 -0.9 4)"/></g><g transform="translate(208.3 203.7)"><animateTransform attributeName="transform" type="translate" values="208.3 203.7;208.1 203.8;207.3 203.9;205.8 203.9;203.7 203.5;201.4 202.6;199.5 201.6;198.4 200.9;198 200.7;198.4 200.9;199.5 201.6;201.4 202.6;203.7 203.5;205.8 203.9;207.3 203.9;208.1 203.8;208.3 203.7" dur="3s" repeatCount="indefinite"/><circle r="8.4" fill="url(#a7-sph)"/></g><g transform="translate(200.9 139.4) rotate(-86.5) scale(1 0.95)"><animateTransform attributeName="transform" type="translate" values="200.9 139.4;200.1 139.5;197.3 140;192.4 140.8;185.9 141.9;179.3 143;174.4 143.8;171.7 144.2;170.8 144.4;171.7 144.2;174.4 143.8;179.3 143;185.9 141.9;192.4 140.8;197.3 140;200.1 139.5;200.9 139.4" dur="3s" repeatCount="indefinite"/><animateTransform attributeName="transform" type="rotate" values="-86.5;-84.7;-78.4;-66.5;-48.9;-29.5;-14.4;-6;-3.5;-6;-14.4;-29.5;-48.9;-66.5;-78.4;-84.7;-86.5" additive="sum" dur="3s" repeatCount="indefinite"/><animateTransform attributeName="transform" type="scale" values="1 0.95;0.99 0.95;0.97 0.94;0.93 0.92;0.87 0.89;0.84 0.87;0.84 0.87;0.85 0.88;0.86 0.88;0.85 0.88;0.84 0.87;0.84 0.87;0.87 0.89;0.93 0.92;0.97 0.94;0.99 0.95;1 0.95" additive="sum" dur="3s" repeatCount="indefinite"/><use href="#a7s0" fill="#a39d90"/><use href="#a7s0" fill="#c9c3b6" transform="matrix(0.94 0 0 0.86 2.9 -2.4)"/><use href="#a7s0" fill="#e9e3d6" transform="matrix(0.72 0 0 0.42 11.4 -6.7)"/><path id="a7m1" d="M31.3 -8.8C34.1 -9.6 32 -12.8 29.3 -13.9C26.5 -14.9 19 -14.6 14.6 -15.2C10.3 -15.7 5.6 -17.9 3.1 -17.2C0.7 -16.5 -1.6 -12.4 0 -11C1.6 -9.6 7.3 -9.2 12.5 -8.8C17.8 -8.4 28.6 -8 31.3 -8.8Z" fill="#f0a58a" stroke="#d9481f" stroke-opacity=".5" stroke-width=".9" stroke-linejoin="round"/><use href="#a7m1" fill="#fffdf8" fill-opacity=".3" stroke="none" transform="matrix(0.5 0 0 0.5 8.4 -8.2)"/><path d="M27.2 -11.5C23.7 -11.9 9.8 -13.4 6.3 -13.8" fill="none" stroke="#4a4640" stroke-opacity=".3" stroke-width=".8" stroke-linecap="round"/><path id="a7m2" d="M11.5 -9.9C11.8 -12 9.6 -16.9 7.3 -18.5C5.1 -20.1 0.5 -20 -2.1 -19.6C-4.7 -19.2 -7 -17.7 -8.4 -15.9C-9.8 -14.2 -11.1 -10.6 -10.4 -8.8C-9.8 -7 -6.8 -5.4 -4.2 -4.9C-1.6 -4.5 2.6 -5.2 5.2 -6.1C7.8 -6.9 11.1 -7.8 11.5 -9.9Z" fill="#d9481f" stroke="#4a4640" stroke-opacity=".38" stroke-width=".9" stroke-linejoin="round"/><use href="#a7m2" fill="#fffdf8" fill-opacity=".3" stroke="none" transform="matrix(0.5 0 0 0.5 0.7 -7.9)"/><path d="M-9.4 -9.9C-8.7 -9.2 -7 -6.4 -5.2 -5.5C-3.5 -4.6 0 -4.6 1 -4.4" fill="none" stroke="#4a4640" stroke-opacity=".3" stroke-width=".8" stroke-linecap="round"/></g><g transform="translate(194.3 127.6) rotate(88.3)"><animateTransform attributeName="transform" type="translate" values="194.3 127.6;195.4 128.3;199 131.2;205 138.4;211.3 151.5;214.8 167.8;215.1 181.5;214.3 189.5;213.9 191.9;214.3 189.5;215.1 181.5;214.8 167.8;211.3 151.5;205 138.4;199 131.2;195.4 128.3;194.3 127.6" dur="3s" repeatCount="indefinite"/><animateTransform attributeName="transform" type="rotate" values="88.3;88.3;88.3;88.3;88.3;88.3;88.3;88.3;88.3;88.3;88.3;88.3;88.3;88.3;88.3;88.3;88.3" additive="sum" dur="3s" repeatCount="indefinite"/><use href="#a7s4" fill="#a39d90"/><use href="#a7s4" fill="#c9c3b6" transform="matrix(0.98 0 0 0.84 -0.5 0.4)"/><use href="#a7s4" fill="#e9e3d6" transform="matrix(0.9 0 0 0.38 -0.3 1.1)"/><path id="a7m5" d="M1.7 -3.8C2.6 -5.5 4.7 -6.5 7.5 -6.7C10.4 -6.9 14.6 -5.8 18.8 -5.1C23 -4.4 29.5 -3.3 32.6 -2.5C35.7 -1.8 37.6 -1.4 37.6 -0.6C37.6 0.1 35.7 1.3 32.6 2.2C29.5 3.2 23 4.4 18.8 5.1C14.6 5.8 10.4 6.8 7.5 6.5C4.7 6.3 2.6 5.2 1.7 3.5C0.7 1.7 0.7 -2.1 1.7 -3.8Z" fill="#f0a58a" stroke="#d9481f" stroke-opacity=".5" stroke-width=".9" stroke-linejoin="round"/><use href="#a7m5" fill="#fffdf8" fill-opacity=".3" stroke="none" transform="matrix(0.5 0 0 0.5 6.9 0.8)"/></g><g transform="translate(195.5 169.4)"><animateTransform attributeName="transform" type="translate" values="195.5 169.4;196.6 170.1;200.3 173;206.3 180.2;212.5 193.3;216 209.6;216.3 223.2;215.5 231.3;215.1 233.7;215.5 231.3;216.3 223.2;216 209.6;212.5 193.3;206.3 180.2;200.3 173;196.6 170.1;195.5 169.4" dur="3s" repeatCount="indefinite"/><use href="#a7db22"/><circle r="6" fill="url(#a7-sph)"/><use href="#a7db23"/></g><g transform="translate(205.1 70.6) rotate(-86.5) scale(1 1)"><animateTransform attributeName="transform" type="translate" values="205.1 70.6;206.4 71.3;210.7 74.5;217.8 82.3;225.4 96.6;229.8 114.4;230.7 129.3;230 138.1;229.7 140.8;230 138.1;230.7 129.3;229.8 114.4;225.4 96.6;217.8 82.3;210.7 74.5;206.4 71.3;205.1 70.6" dur="3s" repeatCount="indefinite"/><animateTransform attributeName="transform" type="rotate" values="-86.5;-84.7;-78.4;-66.5;-48.9;-29.5;-14.4;-6;-3.5;-6;-14.4;-29.5;-48.9;-66.5;-78.4;-84.7;-86.5" additive="sum" dur="3s" repeatCount="indefinite"/><animateTransform attributeName="transform" type="scale" values="1 1;0.99 1;0.97 1;0.93 1;0.87 1;0.84 1;0.84 1;0.85 1;0.86 1;0.85 1;0.84 1;0.84 1;0.87 1;0.93 1;0.97 1;0.99 1;1 1" additive="sum" dur="3s" repeatCount="indefinite"/><use href="#a7s21" fill="#a39d90"/><use href="#a7s21" fill="#c9c3b6" transform="matrix(0.98 0 0 0.84 0.5 -1)"/><use href="#a7s21" fill="#e9e3d6" transform="matrix(0.9 0 0 0.38 1.8 -2.8)"/></g><g transform="translate(194.3 81.1) rotate(90)"><animateTransform attributeName="transform" type="translate" values="194.3 81.1;195.4 81.8;199 84.7;205 91.9;211.3 105;214.8 121.2;215.1 134.9;214.3 143;213.9 145.4;214.3 143;215.1 134.9;214.8 121.2;211.3 105;205 91.9;199 84.7;195.4 81.8;194.3 81.1" dur="3s" repeatCount="indefinite"/><animateTransform attributeName="transform" type="rotate" values="90;90;90;90;90;90;90;90;90;90;90;90;90;90;90;90;90" additive="sum" dur="3s" repeatCount="indefinite"/><use href="#a7s3" fill="#a39d90"/><use href="#a7s3" fill="#c9c3b6" transform="matrix(0.98 0 0 0.84 -0.7 0.6)"/><use href="#a7s3" fill="#e9e3d6" transform="matrix(0.9 0 0 0.38 -0.9 1.6)"/></g><g transform="translate(194.3 127.6)"><animateTransform attributeName="transform" type="translate" values="194.3 127.6;195.4 128.3;199 131.2;205 138.4;211.3 151.5;214.8 167.8;215.1 181.5;214.3 189.5;213.9 191.9;214.3 189.5;215.1 181.5;214.8 167.8;211.3 151.5;205 138.4;199 131.2;195.4 128.3;194.3 127.6" dur="3s" repeatCount="indefinite"/><circle r="6.8" fill="url(#a7-sph)"/></g><g transform="translate(206.7 44.5)"><animateTransform attributeName="transform" type="translate" values="206.7 44.5;208.8 45.5;215.8 49.6;227.4 60.1;240.3 79.4;249 103.5;252 123.9;252.2 135.8;252 139.5;252.2 135.8;252 123.9;249 103.5;240.3 79.4;227.4 60.1;215.8 49.6;208.8 45.5;206.7 44.5" dur="3s" repeatCount="indefinite"/><circle r="15.5" fill="url(#a7-sph)"/><ellipse cx="-9.8" cy="3.8" rx="2.8" ry="3.8" fill="#a39d90" fill-opacity=".55"/></g></svg>
