<svg xmlns="http://www.w3.org/2000/svg" viewBox="0 0 400 300"><title>臀桥 · Glute Bridge</title><defs><radialGradient id="a2-sph" cx=".5" cy=".5" r=".55" fx=".36" fy=".3"><stop offset="0" stop-color="#e9e3d6"/><stop offset=".55" stop-color="#c9c3b6"/><stop offset="1" stop-color="#a39d90"/></radialGradient><path id="a2s0" d="M-8.3 1.1C-8.2 5.5 -7.9 11.9 -5.6 14.3C-3.2 16.7 1.2 15.5 5.6 15.4C9.9 15.3 15.8 13.8 20.4 13.8C25 13.7 29.4 14.2 33.4 14.9C37.4 15.5 41.1 17.3 44.5 17.6C47.9 17.9 51 17.5 53.8 16.5C56.6 15.5 59.2 13.8 61.2 11.6C63.2 9.4 65.1 6 65.9 3.3C66.6 0.6 66.6 -1.7 65.9 -4.4C65.1 -7.1 63.5 -11 61.2 -13.2C58.9 -15.4 55.7 -17.1 51.9 -17.6C48.2 -18.1 43.3 -16.6 39 -15.9C34.6 -15.3 30.3 -13.8 26 -13.8C21.6 -13.7 17 -14.7 13 -15.4C9 -16.1 5.1 -18.7 1.9 -18.2C-1.4 -17.6 -4.8 -15.3 -6.5 -12.1C-8.2 -8.9 -8.5 -3.3 -8.3 1.1Z"/><path id="a2s3" d="M0 9.2L45.3 7A7 7 0 0 0 45.3 -7L0 -9.2A9.2 9.2 0 0 0 0 9.2Z"/><path id="a2s4" d="M0 7L38.1 5.2A5.2 5.2 0 0 0 38.1 -5.2L0 -7A7 7 0 0 0 0 7Z"/><path id="a2s5" d="M0 12.6L51.4 8.8A8.8 8.8 0 0 0 51.4 -8.8L0 -12.6A12.6 12.6 0 0 0 0 12.6Z"/><path id="a2s9" d="M0 8.8L61.6 5.8A5.8 5.8 0 0 0 61.6 -5.8L0 -8.8A8.8 8.8 0 0 0 0 8.8Z"/><path id="a2s10" d="M0 5.2L21.3 3.8A3.8 3.8 0 0 0 21.3 -3.8L0 -5.2A5.2 5.2 0 0 0 0 5.2Z"/><path id="a2s11" d="M0 8.6L45.3 6.6A6.6 6.6 0 0 0 45.3 -6.6L0 -8.6A8.6 8.6 0 0 0 0 8.6Z"/><path id="a2s12" d="M0 6.6L37 4.9A4.9 4.9 0 0 0 37 -4.9L0 -6.6A6.6 6.6 0 0 0 0 6.6Z"/><path id="a2s13" d="M0 11.8L52.7 8.3A8.3 8.3 0 0 0 52.7 -8.3L0 -11.8A11.8 11.8 0 0 0 0 11.8Z"/><path id="a2s17" d="M0 8.3L61.6 5.5A5.5 5.5 0 0 0 61.6 -5.5L0 -8.3A8.3 8.3 0 0 0 0 8.3Z"/><path id="a2s18" d="M0 4.9L21.3 3.6A3.6 3.6 0 0 0 21.3 -3.6L0 -4.9A4.9 4.9 0 0 0 0 4.9Z"/><path id="a2s19" d="M0 6.8L11.1 6.8A6.8 6.8 0 0 0 11.1 -6.8L0 -6.8A6.8 6.8 0 0 0 0 6.8Z"/><radialGradient id="a2-fade" gradientUnits="userSpaceOnUse" cx="200" cy="264" r="190" gradientTransform="translate(200 264) scale(1 .32) translate(-200 -264)"><stop offset="0" stop-color="#fff"/><stop offset=".55" stop-color="#fff" stop-opacity=".75"/><stop offset="1" stop-color="#fff" stop-opacity="0"/></radialGradient><mask id="a2-gm" maskUnits="userSpaceOnUse" x="0" y="0" width="400" height="300"><rect width="400" height="300" fill="url(#a2-fade)"/></mask><radialGradient id="a2-shd"><stop offset="0" stop-color="#a39d90" stop-opacity=".5"/><stop offset=".55" stop-color="#a39d90" stop-opacity=".22"/><stop offset="1" stop-color="#a39d90" stop-opacity="0"/></radialGradient></defs><g mask="url(#a2-gm)"><path d="M92.1 213.2L411.3 272.6L307.9 314.8L-11.3 255.4Z" fill="#efeadf" fill-opacity=".7"/><path d="M92.1 213.2L-11.3 255.4M114.9 217.5L11.5 259.7M137.7 221.7L34.3 263.9M160.5 225.9L57.1 268.2M183.3 230.2L79.9 272.4M206.1 234.4L102.7 276.6M228.9 238.6L125.5 280.9M251.7 242.9L148.3 285.1M274.5 247.1L171.1 289.4M297.3 251.4L193.9 293.6M320.1 255.6L216.7 297.8M342.9 259.8L239.5 302.1M365.7 264.1L262.3 306.3M388.5 268.3L285.1 310.5M411.3 272.6L307.9 314.8M92.1 213.2L411.3 272.6M74.9 220.3L394 279.6M57.6 227.3L376.8 286.6M40.4 234.3L359.6 293.7M23.2 241.4L342.4 300.7M6 248.4L325.1 307.7M-11.3 255.4L307.9 314.8" fill="none" stroke="#ddd5c5" stroke-width="1"/></g><g transform="rotate(10.5)"><ellipse fill="url(#a2-shd)" cx="219.8" cy="223" rx="96.5" ry="8.4"><animate attributeName="cx" values="219.8;219.9;220.2;220.8;221.5;222.1;222.6;222.8;222.9;222.8;222.6;222.1;221.5;220.8;220.2;219.9;219.8" dur="3s" repeatCount="indefinite"/><animate attributeName="rx" values="96.5;96.6;97;97.3;97;96;94.6;93.7;93.4;93.7;94.6;96;97;97.3;97;96.6;96.5" dur="3s" repeatCount="indefinite"/></ellipse></g><g opacity=".82"><g transform="translate(126.6 228.3) rotate(16) scale(0.92 1)"><animateTransform attributeName="transform" type="translate" values="126.6 228.3;126.5 228.1;126.4 227.7;126.6 227;127.4 226.1;128.9 225;130.5 224.1;131.5 223.6;131.8 223.4;131.5 223.6;130.5 224.1;128.9 225;127.4 226.1;126.6 227;126.4 227.7;126.5 228.1;126.6 228.3" dur="3s" repeatCount="indefinite"/><animateTransform attributeName="transform" type="rotate" values="16;16.6;18.8;22.6;27.4;32.1;35.5;37.4;37.9;37.4;35.5;32.1;27.4;22.6;18.8;16.6;16" additive="sum" dur="3s" repeatCount="indefinite"/><animateTransform attributeName="transform" type="scale" values="0.92 1;0.92 1;0.93 1;0.94 1;0.96 1;0.98 1;0.99 1;1 1;1 1;1 1;0.99 1;0.98 1;0.96 1;0.94 1;0.93 1;0.92 1;0.92 1" additive="sum" dur="3s" repeatCount="indefinite"/><use href="#a2s11" fill="#a39d90"/><use href="#a2s11" fill="#c9c3b6" transform="matrix(0.98 0 0 0.84 -0.5 -0.7)"/><use href="#a2s11" fill="#e9e3d6" transform="matrix(0.9 0 0 0.38 -0.4 -2)"/></g><g transform="translate(166.5 239.7)"><animateTransform attributeName="transform" type="translate" values="166.5 239.7;166.5 240.1;166.2 241.3;166 243.4;166 246.1;166.4 248.5;167 250.2;167.4 251;167.5 251.3;167.4 251;167 250.2;166.4 248.5;166 246.1;166 243.4;166.2 241.3;166.5 240.1;166.5 239.7" dur="3s" repeatCount="indefinite"/><circle r="6.4" fill="url(#a2-sph)"/></g></g><g transform="translate(87.8 227.3)"><animateTransform attributeName="transform" type="translate" values="87.8 227.3;87.8 227.3;87.7 227.4;88 227.5;88.9 227.7;90.6 227.9;92.3 227.9;93.5 227.8;93.9 227.8;93.5 227.8;92.3 227.9;90.6 227.9;88.9 227.7;88 227.5;87.7 227.4;87.8 227.3;87.8 227.3" dur="3s" repeatCount="indefinite"/><circle r="15.5" fill="url(#a2-sph)"/><ellipse cx="-8" cy="6.4" rx="2.8" ry="3.8" fill="#a39d90" fill-opacity=".55"/></g><g transform="translate(110.6 231.5) rotate(-169.5) scale(1 1)"><animateTransform attributeName="transform" type="translate" values="110.6 231.5;110.6 231.5;110.5 231.4;110.8 231.2;111.7 231;113.4 230.6;115.1 230.3;116.2 230;116.6 229.9;116.2 230;115.1 230.3;113.4 230.6;111.7 231;110.8 231.2;110.5 231.4;110.6 231.5;110.6 231.5" dur="3s" repeatCount="indefinite"/><animateTransform attributeName="transform" type="rotate" values="-169.5;-169.6;-170.1;-170.9;-172;-173.1;-173.9;-174.4;-174.5;-174.4;-173.9;-173.1;-172;-170.9;-170.1;-169.6;-169.5" additive="sum" dur="3s" repeatCount="indefinite"/><animateTransform attributeName="transform" type="scale" values="1 1;1 1;1 1;1 1;0.99 1;0.99 1;0.99 1;0.99 1;0.98 1;0.99 1;0.99 1;0.99 1;0.99 1;1 1;1 1;1 1;1 1" additive="sum" dur="3s" repeatCount="indefinite"/><use href="#a2s19" fill="#a39d90"/><use href="#a2s19" fill="#c9c3b6" transform="matrix(0.98 0 0 0.84 0.7 0.9)"/><use href="#a2s19" fill="#e9e3d6" transform="matrix(0.9 0 0 0.38 2.3 2.5)"/></g><g transform="translate(170.8 242.7) rotate(-169.5) scale(1 0.9)"><animateTransform attributeName="transform" type="translate" values="170.8 242.7;170.8 241.7;170.6 238.2;170.3 232.1;169.9 224;169.5 216;169.2 209.9;169 206.4;169 205.4;169 206.4;169.2 209.9;169.5 216;169.9 224;170.3 232.1;170.6 238.2;170.8 241.7;170.8 242.7" dur="3s" repeatCount="indefinite"/><animateTransform attributeName="transform" type="rotate" values="-169.5;-170.4;-173.5;-179.1;-186.8;-194.7;-200.7;-204.1;-205.1;-204.1;-200.7;-194.7;-186.8;-179.1;-173.5;-170.4;-169.5" additive="sum" dur="3s" repeatCount="indefinite"/><animateTransform attributeName="transform" type="scale" values="1 0.9;1 0.9;0.99 0.89;0.97 0.88;0.96 0.87;0.95 0.87;0.95 0.87;0.95 0.87;0.95 0.87;0.95 0.87;0.95 0.87;0.95 0.87;0.96 0.87;0.97 0.88;0.99 0.89;1 0.9;1 0.9" additive="sum" dur="3s" repeatCount="indefinite"/><use href="#a2s0" fill="#a39d90"/><use href="#a2s0" fill="#c9c3b6" transform="matrix(0.94 0 0 0.86 0.3 -2.3)"/><use href="#a2s0" fill="#e9e3d6" transform="matrix(0.72 0 0 0.42 3.9 -6.2)"/><path id="a2m1" d="M27.8 -8.8C30.3 -9.6 28.4 -12.8 26 -13.9C23.5 -14.9 16.9 -14.6 13 -15.2C9.1 -15.7 4.9 -17.9 2.8 -17.2C0.6 -16.5 -1.4 -12.4 0 -11C1.4 -9.6 6.5 -9.2 11.1 -8.8C15.8 -8.4 25.4 -8 27.8 -8.8Z" fill="#f0a58a" stroke="#d9481f" stroke-opacity=".5" stroke-width=".9" stroke-linejoin="round"/><use href="#a2m1" fill="#fffdf8" fill-opacity=".3" stroke="none" transform="matrix(0.5 0 0 0.5 5.6 -8)"/><path d="M24.1 -11.5C21 -11.9 8.7 -13.4 5.6 -13.8" fill="none" stroke="#4a4640" stroke-opacity=".3" stroke-width=".8" stroke-linecap="round"/><path id="a2m2" d="M10.2 -9.9C10.5 -12 8.5 -16.9 6.5 -18.5C4.5 -20.1 0.5 -20 -1.9 -19.6C-4.2 -19.2 -6.2 -17.7 -7.4 -15.9C-8.7 -14.2 -9.9 -10.6 -9.3 -8.8C-8.7 -7 -6 -5.4 -3.7 -4.9C-1.4 -4.5 2.3 -5.2 4.6 -6.1C7 -6.9 9.9 -7.8 10.2 -9.9Z" fill="#d9481f" stroke="#4a4640" stroke-opacity=".38" stroke-width=".9" stroke-linejoin="round"/><use href="#a2m2" fill="#fffdf8" fill-opacity=".3" stroke="none" transform="matrix(0.5 0 0 0.5 -1.2 -7.8)"/><path d="M-8.3 -9.9C-7.7 -9.2 -6.2 -6.4 -4.6 -5.5C-3.1 -4.6 0 -4.6 0.9 -4.4" fill="none" stroke="#4a4640" stroke-opacity=".3" stroke-width=".8" stroke-linecap="round"/></g><g transform="translate(166.5 239.7) rotate(14.6) scale(1 1)"><animateTransform attributeName="transform" type="translate" values="166.5 239.7;166.5 240.1;166.2 241.3;166 243.4;166 246.1;166.4 248.5;167 250.2;167.4 251;167.5 251.3;167.4 251;167 250.2;166.4 248.5;166 246.1;166 243.4;166.2 241.3;166.5 240.1;166.5 239.7" dur="3s" repeatCount="indefinite"/><animateTransform attributeName="transform" type="rotate" values="14.6;14.2;12.6;9.7;5.8;1.8;-1.2;-3;-3.5;-3;-1.2;1.8;5.8;9.7;12.6;14.2;14.6" additive="sum" dur="3s" repeatCount="indefinite"/><animateTransform attributeName="transform" type="scale" values="1 1;1 1;0.99 1;0.98 1;0.97 1;0.96 1;0.95 1;0.95 1;0.95 1;0.95 1;0.95 1;0.96 1;0.97 1;0.98 1;0.99 1;1 1;1 1" additive="sum" dur="3s" repeatCount="indefinite"/><use href="#a2s12" fill="#a39d90"/><use href="#a2s12" fill="#c9c3b6" transform="matrix(0.98 0 0 0.84 -0.1 -0.8)"/><use href="#a2s12" fill="#e9e3d6" transform="matrix(0.9 0 0 0.38 0.5 -2.1)"/></g><g transform="translate(202.3 249.1)"><animateTransform attributeName="transform" type="translate" values="202.3 249.1;202.3 249.1;202.1 249.2;201.8 249.5;201.8 249.7;201.9 249.7;202.2 249.4;202.5 249.2;202.5 249.1;202.5 249.2;202.2 249.4;201.9 249.7;201.8 249.7;201.8 249.5;202.1 249.2;202.3 249.1;202.3 249.1" dur="3s" repeatCount="indefinite"/><circle r="5.6" fill="url(#a2-sph)"/></g><g transform="translate(105.6 236.8) rotate(16) scale(0.92 1)"><animateTransform attributeName="transform" type="translate" values="105.6 236.8;105.6 236.7;105.5 236.3;105.7 235.5;106.5 234.6;108 233.6;109.5 232.7;110.6 232.1;110.9 232;110.6 232.1;109.5 232.7;108 233.6;106.5 234.6;105.7 235.5;105.5 236.3;105.6 236.7;105.6 236.8" dur="3s" repeatCount="indefinite"/><animateTransform attributeName="transform" type="rotate" values="16;16.6;18.8;22.6;27.4;32.1;35.5;37.4;37.9;37.4;35.5;32.1;27.4;22.6;18.8;16.6;16" additive="sum" dur="3s" repeatCount="indefinite"/><animateTransform attributeName="transform" type="scale" values="0.92 1;0.92 1;0.93 1;0.94 1;0.96 1;0.98 1;0.99 1;1 1;1 1;1 1;0.99 1;0.98 1;0.96 1;0.94 1;0.93 1;0.92 1;0.92 1" additive="sum" dur="3s" repeatCount="indefinite"/><use href="#a2s3" fill="#a39d90"/><use href="#a2s3" fill="#c9c3b6" transform="matrix(0.98 0 0 0.84 -0.6 -0.8)"/><use href="#a2s3" fill="#e9e3d6" transform="matrix(0.9 0 0 0.38 -0.6 -2.1)"/></g><g transform="translate(145.6 248.2)"><animateTransform attributeName="transform" type="translate" values="145.6 248.2;145.5 248.6;145.3 249.8;145.1 251.9;145.1 254.6;145.5 257.1;146.1 258.7;146.5 259.6;146.6 259.8;146.5 259.6;146.1 258.7;145.5 257.1;145.1 254.6;145.1 251.9;145.3 249.8;145.5 248.6;145.6 248.2" dur="3s" repeatCount="indefinite"/><circle r="6.8" fill="url(#a2-sph)"/></g><g transform="translate(145.6 248.2) rotate(13.4) scale(1 1)"><animateTransform attributeName="transform" type="translate" values="145.6 248.2;145.5 248.6;145.3 249.8;145.1 251.9;145.1 254.6;145.5 257.1;146.1 258.7;146.5 259.6;146.6 259.8;146.5 259.6;146.1 258.7;145.5 257.1;145.1 254.6;145.1 251.9;145.3 249.8;145.5 248.6;145.6 248.2" dur="3s" repeatCount="indefinite"/><animateTransform attributeName="transform" type="rotate" values="13.4;13;11.4;8.6;4.8;1;-2;-3.7;-4.2;-3.7;-2;1;4.8;8.6;11.4;13;13.4" additive="sum" dur="3s" repeatCount="indefinite"/><animateTransform attributeName="transform" type="scale" values="1 1;1 1;0.99 1;0.98 1;0.97 1;0.97 1;0.96 1;0.96 1;0.95 1;0.96 1;0.96 1;0.97 1;0.97 1;0.98 1;0.99 1;1 1;1 1" additive="sum" dur="3s" repeatCount="indefinite"/><use href="#a2s4" fill="#a39d90"/><use href="#a2s4" fill="#c9c3b6" transform="matrix(0.98 0 0 0.84 -0.1 -0.8)"/><use href="#a2s4" fill="#e9e3d6" transform="matrix(0.9 0 0 0.38 0.5 -2.3)"/></g><g transform="translate(182.7 257.1)"><animateTransform attributeName="transform" type="translate" values="182.7 257.1;182.6 257.1;182.4 257.3;182.2 257.5;182.1 257.7;182.3 257.7;182.6 257.5;182.8 257.2;182.9 257.1;182.8 257.2;182.6 257.5;182.3 257.7;182.1 257.7;182.2 257.5;182.4 257.3;182.6 257.1;182.7 257.1" dur="3s" repeatCount="indefinite"/><circle r="6" fill="url(#a2-sph)"/></g><g transform="translate(176.4 240.5) rotate(-42.8) scale(1 1)"><animateTransform attributeName="transform" type="translate" values="176.4 240.5;176.3 239.4;176.1 236;175.8 229.9;175.4 221.8;175 213.7;174.7 207.6;174.6 204.1;174.5 203.1;174.6 204.1;174.7 207.6;175 213.7;175.4 221.8;175.8 229.9;176.1 236;176.3 239.4;176.4 240.5" dur="3s" repeatCount="indefinite"/><animateTransform attributeName="transform" type="rotate" values="-42.8;-41.7;-38.1;-31.5;-22.6;-13.7;-7.1;-3.5;-2.4;-3.5;-7.1;-13.7;-22.6;-31.5;-38.1;-41.7;-42.8" additive="sum" dur="3s" repeatCount="indefinite"/><animateTransform attributeName="transform" type="scale" values="1 1;1 1;0.99 1;0.98 1;0.98 1;0.98 1;0.99 1;1 1;1 1;1 1;0.99 1;0.98 1;0.98 1;0.98 1;0.99 1;1 1;1 1" additive="sum" dur="3s" repeatCount="indefinite"/><use href="#a2s13" fill="#a39d90"/><use href="#a2s13" fill="#c9c3b6" transform="matrix(0.98 0 0 0.84 0.4 -1.6)"/><use href="#a2s13" fill="#e9e3d6" transform="matrix(0.9 0 0 0.38 2.4 -4.4)"/><path id="a2m14" d="M5.3 5.7C4.6 6.4 11.9 9.9 16.9 10.5C21.8 11.1 29.9 10.1 34.8 9.5C39.7 8.9 43.8 7.6 46.4 6.8C48.9 6 51.6 4.9 50 4.6C48.5 4.4 41.7 5.2 36.9 5.4C32 5.7 26.3 6.2 21.1 6.2C15.8 6.3 6 5 5.3 5.7Z" fill="#f0a58a" stroke="#d9481f" stroke-opacity=".5" stroke-width=".9" stroke-linejoin="round"/><use href="#a2m14" fill="#fffdf8" fill-opacity=".3" stroke="none" transform="matrix(0.5 0 0 0.5 14.9 0)"/><path id="a2m15" d="M7.4 1.4C7.4 2.1 16.2 4.4 21.1 5C26 5.6 32.5 4.9 36.9 4.7C41.3 4.4 45.4 3.9 47.4 3.5C49.4 3 50.8 2.2 49 1.7C47.2 1.3 41.5 0.9 36.9 0.7C32.2 0.6 26 0.4 21.1 0.5C16.2 0.6 7.4 0.6 7.4 1.4Z" fill="#f0a58a" stroke="#d9481f" stroke-opacity=".5" stroke-width=".9" stroke-linejoin="round"/><use href="#a2m15" fill="#fffdf8" fill-opacity=".3" stroke="none" transform="matrix(0.5 0 0 0.5 15.5 -2.3)"/><path id="a2m16" d="M-3.2 2.4C-4.4 3.9 -3 10.4 -1.1 11.8C0.9 13.3 6.1 12 8.4 11C10.7 10.1 13 7.4 12.6 6C12.3 4.7 9 3.5 6.3 2.9C3.7 2.2 -1.9 0.9 -3.2 2.4Z" fill="#d9481f" stroke="#4a4640" stroke-opacity=".38" stroke-width=".9" stroke-linejoin="round"/><use href="#a2m16" fill="#fffdf8" fill-opacity=".3" stroke="none" transform="matrix(0.5 0 0 0.5 2.1 -0.1)"/></g><g transform="translate(215 204.6)"><animateTransform attributeName="transform" type="translate" values="215 204.6;215.5 204.4;217.2 203.8;220 202.8;223 202;225.3 201.4;226.5 201.1;227 201;227.1 200.9;227 201;226.5 201.1;225.3 201.4;223 202;220 202.8;217.2 203.8;215.5 204.4;215 204.6" dur="3s" repeatCount="indefinite"/><circle r="7.9" fill="url(#a2-sph)"/></g><g transform="translate(165.3 245) rotate(-43.4) scale(1 1)"><animateTransform attributeName="transform" type="translate" values="165.3 245;165.2 243.9;165.1 240.5;164.8 234.4;164.4 226.3;164 218.2;163.7 212.1;163.5 208.7;163.5 207.6;163.5 208.7;163.7 212.1;164 218.2;164.4 226.3;164.8 234.4;165.1 240.5;165.2 243.9;165.3 245" dur="3s" repeatCount="indefinite"/><animateTransform attributeName="transform" type="rotate" values="-43.4;-42.2;-38.5;-31.7;-22.6;-13.5;-6.7;-3;-1.9;-3;-6.7;-13.5;-22.6;-31.7;-38.5;-42.2;-43.4" additive="sum" dur="3s" repeatCount="indefinite"/><animateTransform attributeName="transform" type="scale" values="1 1;1 1;0.99 1;0.98 1;0.98 1;0.98 1;0.99 1;1 1;1 1;1 1;0.99 1;0.98 1;0.98 1;0.98 1;0.99 1;1 1;1 1" additive="sum" dur="3s" repeatCount="indefinite"/><use href="#a2s5" fill="#a39d90"/><use href="#a2s5" fill="#c9c3b6" transform="matrix(0.98 0 0 0.84 0.4 -1.7)"/><use href="#a2s5" fill="#e9e3d6" transform="matrix(0.9 0 0 0.38 2.3 -4.7)"/><path id="a2m6" d="M5.1 6.1C4.5 6.9 11.7 10.5 16.5 11.2C21.3 11.8 29.2 10.7 34 10.1C38.8 9.4 42.8 8.1 45.3 7.2C47.8 6.4 50.4 5.2 48.9 4.9C47.3 4.7 40.7 5.5 36 5.8C31.3 6 25.7 6.6 20.6 6.6C15.4 6.7 5.8 5.4 5.1 6.1Z" fill="#f0a58a" stroke="#d9481f" stroke-opacity=".5" stroke-width=".9" stroke-linejoin="round"/><use href="#a2m6" fill="#fffdf8" fill-opacity=".3" stroke="none" transform="matrix(0.5 0 0 0.5 14.5 0)"/><path id="a2m7" d="M7.2 1.4C7.2 2.2 15.8 4.7 20.6 5.3C25.4 5.9 31.7 5.2 36 5C40.3 4.7 44.3 4.2 46.3 3.7C48.3 3.1 49.6 2.3 47.8 1.8C46.1 1.3 40.6 1 36 0.8C31.5 0.6 25.4 0.4 20.6 0.6C15.8 0.7 7.2 0.7 7.2 1.4Z" fill="#f0a58a" stroke="#d9481f" stroke-opacity=".5" stroke-width=".9" stroke-linejoin="round"/><use href="#a2m7" fill="#fffdf8" fill-opacity=".3" stroke="none" transform="matrix(0.5 0 0 0.5 15.1 -2.4)"/><path id="a2m8" d="M-3.1 2.5C-4.3 4.1 -2.9 11.1 -1 12.6C0.9 14.1 6 12.8 8.2 11.8C10.5 10.7 12.7 7.9 12.3 6.4C12 5 8.7 3.7 6.2 3C3.6 2.4 -1.9 0.9 -3.1 2.5Z" fill="#d9481f" stroke="#4a4640" stroke-opacity=".38" stroke-width=".9" stroke-linejoin="round"/><use href="#a2m8" fill="#fffdf8" fill-opacity=".3" stroke="none" transform="matrix(0.5 0 0 0.5 2.1 -0.1)"/></g><g transform="translate(202.7 209.7)"><animateTransform attributeName="transform" type="translate" values="202.7 209.7;203.2 209.4;204.9 208.8;207.7 207.9;210.7 207;213 206.4;214.2 206.1;214.7 206;214.8 206;214.7 206;214.2 206.1;213 206.4;210.7 207;207.7 207.9;204.9 208.8;203.2 209.4;202.7 209.7" dur="3s" repeatCount="indefinite"/><circle r="8.4" fill="url(#a2-sph)"/></g><g transform="translate(215 204.6) rotate(65.2) scale(1 1)"><animateTransform attributeName="transform" type="translate" values="215 204.6;215.5 204.4;217.2 203.8;220 202.8;223 202;225.3 201.4;226.5 201.1;227 201;227.1 200.9;227 201;226.5 201.1;225.3 201.4;223 202;220 202.8;217.2 203.8;215.5 204.4;215 204.6" dur="3s" repeatCount="indefinite"/><animateTransform attributeName="transform" type="rotate" values="65.2;65.5;66.6;68.6;71.1;73.7;75.6;76.7;77;76.7;75.6;73.7;71.1;68.6;66.6;65.5;65.2" additive="sum" dur="3s" repeatCount="indefinite"/><animateTransform attributeName="transform" type="scale" values="1 1;1 1;1 1;1 1;1 1;1 1;0.99 1;0.99 1;0.99 1;0.99 1;0.99 1;1 1;1 1;1 1;1 1;1 1;1 1" additive="sum" dur="3s" repeatCount="indefinite"/><use href="#a2s17" fill="#a39d90"/><use href="#a2s17" fill="#c9c3b6" transform="matrix(0.98 0 0 0.84 -0.5 0.1)"/><use href="#a2s17" fill="#e9e3d6" transform="matrix(0.9 0 0 0.38 0.1 0.4)"/></g><g transform="translate(237.2 259.8) rotate(10.5)"><animateTransform attributeName="transform" type="translate" values="237.2 259.8;237.4 259.8;238 259.6;238.8 259.5;239.3 259.5;238.9 259.7;238.1 259.8;237.4 259.8;237.2 259.8;237.4 259.8;238.1 259.8;238.9 259.7;239.3 259.5;238.8 259.5;238 259.6;237.4 259.8;237.2 259.8" dur="3s" repeatCount="indefinite"/><animateTransform attributeName="transform" type="rotate" values="10.5;10.5;10.5;10.5;10.5;10.5;10.5;10.5;10.5;10.5;10.5;10.5;10.5;10.5;10.5;10.5;10.5" additive="sum" dur="3s" repeatCount="indefinite"/><use href="#a2s18" fill="#a39d90"/><use href="#a2s18" fill="#c9c3b6" transform="matrix(0.98 0 0 0.84 -0.2 -0.5)"/><use href="#a2s18" fill="#e9e3d6" transform="matrix(0.9 0 0 0.38 -0.1 -1.5)"/></g><g transform="translate(202.7 209.7) rotate(65.2) scale(1 1)"><animateTransform attributeName="transform" type="translate" values="202.7 209.7;203.2 209.4;204.9 208.8;207.7 207.9;210.7 207;213 206.4;214.2 206.1;214.7 206;214.8 206;214.7 206;214.2 206.1;213 206.4;210.7 207;207.7 207.9;204.9 208.8;203.2 209.4;202.7 209.7" dur="3s" repeatCount="indefinite"/><animateTransform attributeName="transform" type="rotate" values="65.2;65.5;66.6;68.6;71.1;73.7;75.6;76.7;77;76.7;75.6;73.7;71.1;68.6;66.6;65.5;65.2" additive="sum" dur="3s" repeatCount="indefinite"/><animateTransform attributeName="transform" type="scale" values="1 1;1 1;1 1;1 1;1 1;1 1;0.99 1;0.99 1;0.99 1;0.99 1;0.99 1;1 1;1 1;1 1;1 1;1 1;1 1" additive="sum" dur="3s" repeatCount="indefinite"/><use href="#a2s9" fill="#a39d90"/><use href="#a2s9" fill="#c9c3b6" transform="matrix(0.98 0 0 0.84 -0.5 0.2)"/><use href="#a2s9" fill="#e9e3d6" transform="matrix(0.9 0 0 0.38 -0.1 0.4)"/></g><g transform="translate(224.9 264.9) rotate(10.5)"><animateTransform attributeName="transform" type="translate" values="224.9 264.9;225.1 264.8;225.7 264.7;226.5 264.5;227 264.5;226.6 264.7;225.8 264.8;225.1 264.9;224.9 264.9;225.1 264.9;225.8 264.8;226.6 264.7;227 264.5;226.5 264.5;225.7 264.7;225.1 264.8;224.9 264.9" dur="3s" repeatCount="indefinite"/><animateTransform attributeName="transform" type="rotate" values="10.5;10.5;10.5;10.5;10.5;10.5;10.5;10.5;10.5;10.5;10.5;10.5;10.5;10.5;10.5;10.5;10.5" additive="sum" dur="3s" repeatCount="indefinite"/><use href="#a2s10" fill="#a39d90"/><use href="#a2s10" fill="#c9c3b6" transform="matrix(0.98 0 0 0.84 -0.2 -0.6)"/><use href="#a2s10" fill="#e9e3d6" transform="matrix(0.9 0 0 0.38 -0.1 -1.6)"/></g></svg>
